<svg width="26" height="27" viewBox="0 0 26 27" fill="none" xmlns="http://www.w3.org/2000/svg">
<g clip-path="url(#clip0)">
<path d="M5.76215 15.9753L4.85713 19.3539L1.54929 19.4238C0.560727 17.5903 0 15.4925 0 13.2632C0 11.1074 0.524266 9.07457 1.45356 7.28458H1.45427L4.39918 7.82449L5.68923 10.7517C5.41922 11.5389 5.27206 12.3839 5.27206 13.2632C5.27216 14.2174 5.44502 15.1318 5.76215 15.9753Z" fill="#FBBB00"/>
<path d="M25.7729 10.8346C25.9222 11.621 26 12.4331 26 13.2632C26 14.1939 25.9021 15.1017 25.7157 15.9775C25.0829 18.9575 23.4293 21.5596 21.1386 23.401L21.1379 23.4003L17.4286 23.2111L16.9037 19.9339C18.4236 19.0425 19.6115 17.6475 20.2372 15.9775H13.2858V10.8346H20.3387H25.7729Z" fill="#518EF8"/>
<path d="M21.1378 23.4003L21.1386 23.401C18.9107 25.1917 16.0807 26.2632 13 26.2632C8.04929 26.2632 3.74502 23.496 1.54929 19.4239L5.76215 15.9753C6.85999 18.9053 9.68642 20.991 13 20.991C14.4243 20.991 15.7586 20.606 16.9036 19.9339L21.1378 23.4003Z" fill="#28B446"/>
<path d="M21.2979 3.256L17.0864 6.70385C15.9014 5.96315 14.5007 5.53527 13 5.53527C9.61141 5.53527 6.73211 7.71668 5.68927 10.7517L1.45426 7.28458H1.45355C3.61714 3.11316 7.9757 0.263161 13 0.263161C16.1543 0.263161 19.0464 1.38675 21.2979 3.256Z" fill="#F14336"/>
</g>
<defs>
<clipPath id="clip0">
<rect width="26" height="26" fill="white" transform="translate(0 0.263161)"/>
</clipPath>
</defs>
</svg>
