<svg width="160" height="140" viewBox="0 0 160 140" fill="none" xmlns="http://www.w3.org/2000/svg">
    <g clip-path="url(#clip0)">
        <path d="M158.041 137.998C157.763 138.387 157.482 138.773 157.203 139.157C156.403 139.708 155.454 140.002 154.483 140H4.82759C3.89944 140.001 2.99097 139.732 2.21217 139.228C1.95371 138.887 1.69816 138.543 1.4397 138.2L1.69816 138.058L77.4601 96.0633C78.1323 95.6915 78.8877 95.496 79.6559 95.495C80.4241 95.494 81.18 95.6875 81.8532 96.0576L157.785 137.856L158.041 137.998Z"
              fill="#8400F0"/>
        <path d="M154.483 49.6957L88.8224 11.7764C86.0608 10.1815 82.9281 9.34108 79.739 9.33951C76.5499 9.33794 73.4165 10.1753 70.6532 11.7674L4.82759 49.6957C3.54779 49.6976 2.32093 50.2068 1.41597 51.1117C0.511014 52.0167 0.00181046 53.2435 0 54.5233V135.172C0.00149111 136.452 0.51059 137.679 1.41562 138.584C2.32064 139.489 3.54769 139.999 4.82759 140H154.483C155.763 139.998 156.989 139.489 157.894 138.584C158.799 137.679 159.308 136.452 159.31 135.172V54.5233C159.309 53.2435 158.799 52.0167 157.894 51.1117C156.989 50.2068 155.763 49.6976 154.483 49.6957ZM158.742 135.172C158.74 136.301 158.29 137.383 157.492 138.181C156.694 138.98 155.612 139.429 154.483 139.432H4.82759C3.69849 139.43 2.61621 138.981 1.81782 138.182C1.01942 137.384 0.569983 136.302 0.567952 135.172V54.5233C0.569325 53.394 1.01855 52.3114 1.81709 51.5128C2.61563 50.7143 3.69828 50.2651 4.82759 50.2637L70.6532 12.3354C73.4165 10.7432 76.5499 9.90589 79.739 9.90746C82.9281 9.90903 86.0608 10.7494 88.8224 12.3443L154.483 50.2637C155.612 50.2651 156.695 50.7143 157.493 51.5128C158.292 52.3114 158.741 53.394 158.742 54.5233V135.172Z"
              fill="#BDBDBD"/>
        <path d="M79.7403 95.325C79.2457 95.3267 78.7544 95.2442 78.2875 95.0812L78.2016 95.0509L78.1842 94.8599C78.1307 94.8863 78.0767 94.9115 78.0226 94.9354L77.9654 94.9605L77.9082 94.9352C77.7886 94.8827 77.6698 94.8232 77.5551 94.7586L25.2738 65.3804V5.39553C25.2754 4.00268 25.8294 2.66733 26.8143 1.68244C27.7992 0.697546 29.1345 0.143546 30.5274 0.141983H128.783C130.176 0.143546 131.511 0.697546 132.496 1.68244C133.481 2.66733 134.035 4.00268 134.037 5.39553V65.4571L133.964 65.4978L81.9256 94.7587C81.2575 95.1311 80.5052 95.3261 79.7403 95.325Z"
              fill="white"/>
        <path d="M79.7403 95.467C79.2297 95.4687 78.7225 95.3836 78.2404 95.2152L78.0684 95.1546L78.0611 95.0735L77.9654 95.1155L77.8512 95.0653C77.7272 95.0108 77.6042 94.9492 77.4854 94.8823L25.1318 65.4636V5.39554C25.1335 3.96505 25.7024 2.59362 26.7139 1.58211C27.7254 0.570597 29.0969 0.00161897 30.5274 0H128.783C130.213 0.00162497 131.585 0.570603 132.596 1.58211C133.608 2.59362 134.177 3.96505 134.179 5.39554V65.5401L81.9951 94.8824C81.3059 95.2668 80.5296 95.4681 79.7403 95.467ZM78.6006 94.7353C79.6447 95.0351 80.7649 94.91 81.7171 94.3872L133.611 65.2079V5.39554C133.609 4.11562 133.1 2.88855 132.195 1.98351C131.29 1.07847 130.063 0.569392 128.783 0.567951H30.5274C29.2475 0.569386 28.0204 1.07847 27.1153 1.98351C26.2103 2.88854 25.7012 4.11562 25.6998 5.39554V65.1311L29.1046 67.0432L77.7639 94.3874C77.8301 94.4247 77.8974 94.4598 77.9656 94.4926C78.0338 94.4598 78.1009 94.4247 78.167 94.3875L78.5494 94.172L78.6006 94.7353Z"
              fill="#BDBDBD"/>
        <path d="M158.052 51.7915L137.444 63.3777L133.895 65.374L81.8561 94.6349C81.2093 94.9956 80.4809 95.1843 79.7404 95.183C79.2619 95.1844 78.7866 95.1047 78.3348 94.9473C78.2091 94.9071 78.0858 94.8597 77.9655 94.8053C77.8492 94.7542 77.7356 94.6974 77.6248 94.6349L28.9656 67.2909L25.4159 65.2974L1.30068 51.746C1.23511 51.7084 1.18701 51.6465 1.16681 51.5737C1.14662 51.5008 1.15595 51.423 1.1928 51.357C1.22975 51.2915 1.29117 51.2434 1.36357 51.2232C1.43597 51.2029 1.51344 51.2123 1.57897 51.2491L25.4159 64.6442L28.9656 66.6377L77.9031 94.1379C78.0655 94.2291 78.2344 94.3079 78.4086 94.3736C78.4825 94.402 78.5591 94.4276 78.6358 94.4503C79.1219 94.5995 79.6331 94.6487 80.1387 94.5951C80.6443 94.5414 81.1339 94.3859 81.5778 94.1379L133.895 64.7237L137.444 62.7274L157.774 51.2974C157.807 51.2791 157.842 51.2674 157.879 51.2629C157.916 51.2584 157.954 51.2613 157.99 51.2713C158.025 51.2814 158.059 51.2983 158.088 51.3213C158.118 51.3443 158.142 51.3728 158.16 51.4053C158.179 51.4377 158.19 51.4734 158.195 51.5104C158.199 51.5474 158.196 51.5849 158.186 51.6207C158.176 51.6566 158.159 51.6901 158.136 51.7194C158.113 51.7487 158.085 51.7732 158.052 51.7915Z"
              fill="#BDBDBD"/>
        <path d="M46.5932 18.7424H38.6419C38.0394 18.7424 37.4616 18.503 37.0355 18.077C36.6095 17.6509 36.3701 17.0731 36.3701 16.4706C36.3701 15.8681 36.6095 15.2902 37.0355 14.8642C37.4616 14.4381 38.0394 14.1988 38.6419 14.1988H46.5932C47.1958 14.1988 47.7736 14.4381 48.1996 14.8642C48.6257 15.2902 48.865 15.8681 48.865 16.4706C48.865 17.0731 48.6257 17.6509 48.1996 18.077C47.7736 18.503 47.1958 18.7424 46.5932 18.7424Z"
              fill="#8400F0"/>
        <path d="M55.9645 26.4097H38.6419C38.0394 26.4097 37.4616 26.1704 37.0355 25.7443C36.6095 25.3183 36.3701 24.7405 36.3701 24.1379C36.3701 23.5354 36.6095 22.9576 37.0355 22.5315C37.4616 22.1055 38.0394 21.8661 38.6419 21.8661H55.9645C56.567 21.8661 57.1448 22.1055 57.5708 22.5315C57.9969 22.9576 58.2363 23.5354 58.2363 24.1379C58.2363 24.7405 57.9969 25.3183 57.5708 25.7443C57.1448 26.1704 56.567 26.4097 55.9645 26.4097Z"
              fill="#E6E6E6"/>
        <path d="M104.361 46.856H55.2334C54.6308 46.856 54.053 46.6166 53.6269 46.1906C53.2009 45.7645 52.9615 45.1867 52.9615 44.5842C52.9615 43.9817 53.2009 43.4038 53.6269 42.9778C54.053 42.5517 54.6308 42.3124 55.2334 42.3124H104.361C104.964 42.3124 105.541 42.5517 105.968 42.9778C106.394 43.4038 106.633 43.9817 106.633 44.5842C106.633 45.1867 106.394 45.7645 105.968 46.1906C105.541 46.6166 104.964 46.856 104.361 46.856Z"
              fill="#8400F0"/>
        <path d="M108.905 55.6592H50.4057C49.8032 55.6592 49.2254 55.4199 48.7993 54.9938C48.3733 54.5678 48.1339 53.9899 48.1339 53.3874C48.1339 52.7849 48.3733 52.2071 48.7993 51.781C49.2254 51.355 49.8032 51.1156 50.4057 51.1156H108.905C109.507 51.1156 110.085 51.355 110.511 51.781C110.937 52.2071 111.177 52.7849 111.177 53.3874C111.177 53.9899 110.937 54.5678 110.511 54.9938C110.085 55.4199 109.507 55.6592 108.905 55.6592Z"
              fill="#E6E6E6"/>
        <path d="M108.905 64.1785H50.4057C49.8032 64.1785 49.2254 63.9391 48.7993 63.5131C48.3733 63.0871 48.1339 62.5092 48.1339 61.9067C48.1339 61.3042 48.3733 60.7263 48.7993 60.3003C49.2254 59.8742 49.8032 59.6349 50.4057 59.6349H108.905C109.507 59.6349 110.085 59.8742 110.511 60.3003C110.937 60.7263 111.177 61.3042 111.177 61.9067C111.177 62.5092 110.937 63.0871 110.511 63.5131C110.085 63.9391 109.507 64.1785 108.905 64.1785Z"
              fill="#E6E6E6"/>
    </g>
    <defs>
        <clipPath id="clip0">
            <rect width="159.31" height="140" fill="white"/>
        </clipPath>
    </defs>
</svg>
