<svg width="303" height="150" viewBox="0 0 303 150" fill="none" xmlns="http://www.w3.org/2000/svg">
<g clip-path="url(#clip0)">
<path d="M103.626 119.898C105.016 116.261 105.218 112.959 104.076 112.522C102.934 112.086 100.881 114.681 99.491 118.318C98.1008 121.955 97.8994 125.258 99.0413 125.694C100.183 126.131 102.236 123.536 103.626 119.898Z" fill="#2F2E41"/>
<path d="M102.444 132.015C103.691 124.328 98.4708 117.085 90.7835 115.838C83.0963 114.59 75.8533 119.811 74.6058 127.498C73.3583 135.185 78.5788 142.428 86.266 143.676C93.9533 144.923 101.196 139.703 102.444 132.015Z" fill="#2F2E41"/>
<path d="M86.383 140.823H82.0991V148.499H86.383V140.823Z" fill="#2F2E41"/>
<path d="M94.9507 140.823H90.6669V148.499H94.9507V140.823Z" fill="#2F2E41"/>
<path d="M85.669 149.927C87.6406 149.927 89.2389 149.327 89.2389 148.588C89.2389 147.848 87.6406 147.249 85.669 147.249C83.6974 147.249 82.0991 147.848 82.0991 148.588C82.0991 149.327 83.6974 149.927 85.669 149.927Z" fill="#2F2E41"/>
<path d="M94.2368 149.748C96.2084 149.748 97.8067 149.149 97.8067 148.409C97.8067 147.67 96.2084 147.071 94.2368 147.071C92.2652 147.071 90.6669 147.67 90.6669 148.409C90.6669 149.149 92.2652 149.748 94.2368 149.748Z" fill="#2F2E41"/>
<path d="M89.0234 131.004C91.6839 130.926 93.7773 128.706 93.6991 126.045C93.6209 123.385 91.4008 121.291 88.7403 121.369C86.0797 121.448 83.9864 123.668 84.0645 126.328C84.1427 128.989 86.3629 131.082 89.0234 131.004Z" fill="white"/>
<path d="M88.8819 127.793C89.7691 127.793 90.4883 127.074 90.4883 126.187C90.4883 125.299 89.7691 124.58 88.8819 124.58C87.9946 124.58 87.2754 125.299 87.2754 126.187C87.2754 127.074 87.9946 127.793 88.8819 127.793Z" fill="#3F3D56"/>
<path d="M74.8464 116.643C73.7078 111.544 77.3475 106.391 82.9758 105.134C88.6041 103.878 94.0898 106.993 95.2284 112.092C96.367 117.191 92.6369 119.072 87.0086 120.328C81.3802 121.585 75.985 121.742 74.8464 116.643Z" fill="#E6E6E6"/>
<path d="M79.0127 126.235C79.5366 125.131 77.1091 122.882 73.5909 121.214C70.0726 119.545 66.7958 119.088 66.272 120.192C65.7481 121.297 68.1756 123.545 71.6939 125.214C75.2121 126.882 78.4889 127.34 79.0127 126.235Z" fill="#2F2E41"/>
<path d="M81.5984 134.844C81.5984 136.224 85.152 138.949 89.0952 138.949C93.0384 138.949 96.7356 135.064 96.7356 133.683C96.7356 132.303 93.0384 133.951 89.0952 133.951C85.152 133.951 81.5984 133.464 81.5984 134.844Z" fill="white"/>
<path d="M187.697 91.4365L172.38 106.553L137.765 140.71L137.065 141.401L133.162 145.251L124.979 137.167L124.259 136.457L109.299 121.68H109.296L104.503 116.942L101.67 114.143L93.236 105.813L92.0967 104.687L78.6529 91.407C75.982 88.7371 73.7182 85.689 71.9342 82.3604C71.7705 82.0625 71.6165 81.7612 71.4659 81.46C68.2778 75.1036 66.9137 67.9879 67.525 60.903C68.1364 53.8182 70.6994 47.0414 74.9294 41.3251C79.1594 35.6088 84.8908 31.1767 91.4874 28.5208C98.0841 25.865 105.288 25.0893 112.298 26.2799H112.302C112.426 26.2996 112.547 26.3192 112.672 26.3454C113.987 26.5775 115.289 26.8803 116.571 27.2524C119.928 28.2226 123.135 29.6469 126.106 31.4859C126.417 31.6791 126.725 31.8755 127.029 32.0753C129.206 33.514 131.232 35.1694 133.076 37.016L133.191 36.9014L133.306 37.016C134.423 35.8993 135.607 34.8518 136.852 33.8794C137.123 33.6665 137.398 33.457 137.673 33.254C141.884 30.1492 146.684 27.9363 151.78 26.7507C156.876 25.565 162.159 25.4316 167.308 26.3585C168.625 26.5905 169.928 26.8944 171.211 27.2688C171.64 27.3899 172.066 27.5209 172.488 27.6617C172.829 27.773 173.169 27.8876 173.506 28.012C176.314 29.0157 178.994 30.3454 181.492 31.9738C182.039 32.3306 182.578 32.7039 183.11 33.0936C187.609 36.3641 191.345 40.571 194.062 45.4245C196.78 50.278 198.412 55.6628 198.848 61.2079C199.284 66.7531 198.513 72.3268 196.588 77.5453C194.663 82.7638 191.629 87.503 187.697 91.4365Z" fill="#6C63FF"/>
<path opacity="0.15" d="M172.38 106.553L137.765 140.71L137.064 141.401L133.162 145.251L124.979 137.167L124.259 136.457L109.299 121.68C111.703 121.12 115.396 121.89 116.748 122.558C119.953 124.139 122.589 126.736 125.844 128.216C128.75 129.528 131.997 129.886 135.12 129.24C140.954 128.016 145.469 123.504 149.451 119.064C153.432 114.621 157.502 109.854 163.098 107.794C166.048 106.707 169.217 106.462 172.38 106.553Z" fill="black"/>
<path d="M197.545 37.648C192.782 32.8713 186.853 29.4231 180.346 27.6453C179.914 27.5242 179.485 27.4161 179.05 27.3146C177.177 26.8673 175.274 26.5619 173.356 26.4011C173.022 26.3684 172.688 26.3455 172.351 26.3291C170.668 26.2227 168.98 26.2292 167.298 26.3487C158.087 26.9651 149.398 30.8488 142.794 37.3009L142.676 37.183L142.559 37.3009C138.244 33.0912 133.009 29.9435 127.268 28.107C126.944 28.0022 126.617 27.9007 126.289 27.8057C121.868 26.5233 117.255 26.0301 112.662 26.3487C112.534 26.3553 112.407 26.3651 112.282 26.3782C103.861 27.0239 95.8816 30.4042 89.5593 36.0043C88.9633 36.5282 88.3772 37.0783 87.8075 37.648C82.4552 43.0102 78.7802 49.8149 77.2312 57.2311C75.6823 64.6474 76.3264 72.3542 79.085 79.4104C79.1996 79.7182 79.324 80.0227 79.455 80.3271C81.4035 84.9734 84.2408 89.1943 87.8075 92.7527L100.551 105.332L101.553 106.324L129.128 133.543L129.838 134.247L137.081 141.397L142.676 146.921L197.545 92.7495C204.842 85.437 208.94 75.5288 208.94 65.1987C208.94 54.8686 204.842 44.9604 197.545 37.648ZM196.855 92.052L142.676 145.539L137.782 140.707L130.693 133.71L129.982 133.009L102.944 106.314L101.959 105.342L88.5015 92.0553C85.047 88.6098 82.2939 84.5267 80.3947 80.0325C80.2638 79.728 80.1392 79.4235 80.0247 79.119C77.318 72.2343 76.6782 64.7096 78.1839 57.4668C79.6895 50.224 83.2752 43.5776 88.5015 38.3421C89.1107 37.7331 89.7338 37.1503 90.3711 36.5937H90.3744C96.4569 31.2709 104.086 28.0393 112.141 27.3736C113.212 27.2819 114.284 27.236 115.357 27.236C115.759 27.236 116.159 27.2426 116.561 27.2557C119.852 27.357 123.115 27.8853 126.269 28.8273C126.594 28.9223 126.918 29.0237 127.239 29.1318C130.651 30.244 133.885 31.8418 136.842 33.8761C138.767 35.196 140.565 36.691 142.215 38.3421L142.562 38.6892L142.676 38.5746L142.791 38.6892L143.138 38.3421C146.806 34.6698 151.19 31.7907 156.018 29.8836C160.846 27.9764 166.014 27.082 171.201 27.2557C171.617 27.2688 172.033 27.2884 172.449 27.3179C172.783 27.3375 173.117 27.3605 173.447 27.3932C175.558 27.5825 177.649 27.9494 179.698 28.4901C180.137 28.6014 180.572 28.7225 181.004 28.8568C187.286 30.7565 192.968 34.2521 197.497 39.0026C202.025 43.7531 205.244 49.5962 206.841 55.962C208.437 62.3277 208.357 68.9985 206.606 75.3238C204.856 81.649 201.496 87.4125 196.855 92.052Z" fill="#3F3D56"/>
<path opacity="0.15" d="M120.779 28.7388C118.677 30.3989 116.421 31.9312 115.055 34.2002C114.05 35.8766 113.615 37.8247 113.29 39.75C112.662 43.4956 112.393 47.333 111.162 50.9248C109.934 54.5166 107.538 57.9479 103.985 59.2871C101.782 60.1155 99.3522 60.0696 97.0046 59.9092C91.2126 59.5163 85.3812 58.4784 80.1687 55.9278C77.2547 54.5002 74.429 52.575 71.1909 52.3622C70.5319 52.3198 69.8702 52.356 69.2198 52.4702C72.0452 43.6505 77.9575 36.146 85.871 31.3349C93.7845 26.5238 103.168 24.7289 112.298 26.2799H112.302C112.426 26.2996 112.547 26.3192 112.672 26.3454C113.987 26.5775 115.289 26.8803 116.571 27.2524C118.001 27.666 119.406 28.1624 120.779 28.7388Z" fill="black"/>
<path d="M28.4083 132.551C29.9333 133.087 31.5707 133.221 33.1627 132.94C34.7547 132.66 36.2476 131.974 37.4977 130.949C40.6813 128.277 41.6795 123.875 42.4916 119.799L44.8939 107.742L39.8645 111.205C36.2478 113.695 32.5495 116.266 30.0452 119.873C27.541 123.48 26.4479 128.404 28.46 132.307L28.4083 132.551Z" fill="#E6E6E6"/>
<path d="M28.8382 147.148C28.3292 143.44 27.8058 139.684 28.1628 135.937C28.4799 132.609 29.4953 129.358 31.5625 126.693C32.6598 125.28 33.995 124.071 35.508 123.117C35.9026 122.868 36.2657 123.493 35.8729 123.741C33.2549 125.396 31.2299 127.839 30.09 130.719C28.831 133.921 28.6288 137.412 28.8458 140.814C28.977 142.871 29.2551 144.915 29.5353 146.956C29.5574 147.048 29.5436 147.145 29.4967 147.228C29.4499 147.31 29.3734 147.372 29.2828 147.4C29.1904 147.425 29.0919 147.413 29.0087 147.365C28.9254 147.318 28.8642 147.24 28.8382 147.148H28.8382Z" fill="#F2F2F2"/>
<path d="M33.7411 140.587C34.3952 141.581 35.2942 142.39 36.3516 142.935C37.409 143.481 38.5892 143.745 39.7784 143.703C42.8346 143.558 45.3824 141.425 47.676 139.399L54.4599 133.41L49.9701 133.195C46.7413 133.04 43.4292 132.896 40.3538 133.892C37.2785 134.888 34.4422 137.284 33.8799 140.467L33.7411 140.587Z" fill="#E6E6E6"/>
<path d="M27.3996 149.279C29.8497 144.944 32.6916 140.126 37.7695 138.586C39.1814 138.159 40.6619 138.006 42.1312 138.136C42.5943 138.176 42.4786 138.889 42.0164 138.85C39.5535 138.645 37.0953 139.295 35.0558 140.691C33.0931 142.027 31.565 143.884 30.2716 145.854C29.4794 147.06 28.7698 148.318 28.06 149.574C27.8332 149.975 27.1702 149.685 27.3996 149.279H27.3996Z" fill="#F2F2F2"/>
<path d="M98.2555 39.0017C106.043 39.0017 112.357 32.6884 112.357 24.9006C112.357 17.1128 106.043 10.7995 98.2555 10.7995C90.4677 10.7995 84.1544 17.1128 84.1544 24.9006C84.1544 32.6884 90.4677 39.0017 98.2555 39.0017Z" fill="#2F2E41"/>
<path d="M96.1137 35.9672H91.8298V43.6425H96.1137V35.9672Z" fill="#2F2E41"/>
<path d="M104.681 35.9672H100.398V43.6425H104.681V35.9672Z" fill="#2F2E41"/>
<path d="M95.3996 45.0705C97.3712 45.0705 98.9695 44.4711 98.9695 43.7318C98.9695 42.9924 97.3712 42.3931 95.3996 42.3931C93.428 42.3931 91.8297 42.9924 91.8297 43.7318C91.8297 44.4711 93.428 45.0705 95.3996 45.0705Z" fill="#2F2E41"/>
<path d="M103.967 44.892C105.939 44.892 107.537 44.2926 107.537 43.5533C107.537 42.8139 105.939 42.2145 103.967 42.2145C101.996 42.2145 100.398 42.8139 100.398 43.5533C100.398 44.2926 101.996 44.892 103.967 44.892Z" fill="#2F2E41"/>
<path d="M98.6126 26.15C101.274 26.15 103.432 23.9923 103.432 21.3306C103.432 18.6689 101.274 16.5112 98.6126 16.5112C95.9509 16.5112 93.7932 18.6689 93.7932 21.3306C93.7932 23.9923 95.9509 26.15 98.6126 26.15Z" fill="white"/>
<path d="M101.389 23.4524C102.013 22.8278 102.01 21.8113 101.381 21.182C100.752 20.5527 99.7356 20.5488 99.1107 21.1734C98.4858 21.798 98.4892 22.8145 99.1182 23.4439C99.7472 24.0732 100.764 24.077 101.389 23.4524Z" fill="#3F3D56"/>
<path d="M84.577 11.7869C83.4384 6.68776 87.078 1.53527 92.7064 0.278513C98.3347 -0.978249 103.82 2.13666 104.959 7.23583C106.098 12.335 102.367 14.2157 96.7392 15.4724C91.1108 16.7291 85.7156 16.8861 84.577 11.7869Z" fill="#E6E6E6"/>
<path d="M211.647 120.979C212.591 120.201 211.347 117.135 208.869 114.131C206.392 111.127 203.619 109.322 202.676 110.1C201.733 110.878 202.977 113.943 205.454 116.947C207.931 119.952 210.704 121.756 211.647 120.979Z" fill="#2F2E41"/>
<path d="M221.696 143.532C229.383 142.284 234.604 135.041 233.356 127.354C232.109 119.667 224.866 114.446 217.178 115.694C209.491 116.941 204.271 124.184 205.518 131.872C206.766 139.559 214.009 144.779 221.696 143.532Z" fill="#2F2E41"/>
<path d="M225.863 140.679H221.579V148.355H225.863V140.679Z" fill="#2F2E41"/>
<path d="M217.295 140.679H213.011V148.355H217.295V140.679Z" fill="#2F2E41"/>
<path d="M222.293 149.783C224.265 149.783 225.863 149.183 225.863 148.444C225.863 147.705 224.265 147.105 222.293 147.105C220.321 147.105 218.723 147.705 218.723 148.444C218.723 149.183 220.321 149.783 222.293 149.783Z" fill="#2F2E41"/>
<path d="M213.725 149.604C215.697 149.604 217.295 149.005 217.295 148.266C217.295 147.526 215.697 146.927 213.725 146.927C211.754 146.927 210.155 147.526 210.155 148.266C210.155 149.005 211.754 149.604 213.725 149.604Z" fill="#2F2E41"/>
<path d="M224.374 122.089C219.928 118.416 217.458 115.048 220.786 111.02C224.114 106.992 230.416 106.705 234.861 110.379C239.307 114.052 240.213 120.295 236.885 124.323C233.556 128.35 228.82 125.763 224.374 122.089Z" fill="#6C63FF"/>
<path d="M214.703 127.113C217.364 127.035 219.457 124.815 219.379 122.154C219.301 119.494 217.081 117.4 214.42 117.478C211.76 117.557 209.666 119.777 209.744 122.437C209.823 125.098 212.043 127.191 214.703 127.113Z" fill="white"/>
<path d="M212.868 122.708C213.755 122.708 214.474 121.989 214.474 121.102C214.474 120.215 213.755 119.496 212.868 119.496C211.981 119.496 211.261 120.215 211.261 121.102C211.261 121.989 211.981 122.708 212.868 122.708Z" fill="#3F3D56"/>
<path d="M207.277 126.265C206.301 127.241 205.611 130.405 206.984 131.778C208.357 133.15 212.391 131.69 213.367 130.714C214.343 129.738 211.891 129.616 210.518 128.244C209.145 126.871 208.253 125.289 207.277 126.265Z" fill="white"/>
<path d="M232.822 148.47C233.964 148.033 233.763 144.731 232.373 141.094C230.982 137.456 228.93 134.862 227.788 135.298C226.646 135.734 226.847 139.037 228.238 142.674C229.628 146.311 231.681 148.906 232.822 148.47Z" fill="#2F2E41"/>
<path d="M302.208 150H0.32742C0.240583 150 0.157302 149.966 0.0958988 149.904C0.0344957 149.843 0 149.759 0 149.673C0 149.586 0.0344957 149.502 0.0958988 149.441C0.157302 149.38 0.240583 149.345 0.32742 149.345H302.208C302.295 149.345 302.379 149.38 302.44 149.441C302.501 149.502 302.536 149.586 302.536 149.673C302.536 149.759 302.501 149.843 302.44 149.904C302.379 149.966 302.295 150 302.208 150Z" fill="#CCCCCC"/>
</g>
<defs>
<clipPath id="clip0">
<rect width="303" height="150" fill="white"/>
</clipPath>
</defs>
</svg>
