<svg width="203" height="150" viewBox="0 0 203 150" fill="none" xmlns="http://www.w3.org/2000/svg">
<g style="mix-blend-mode:multiply" clip-path="url(#clip0)">
<g opacity="0.1">
<path opacity="0.1" d="M162.315 106.272C162.315 106.272 147.844 104.393 158.636 127.814C158.636 127.814 168.472 123.6 168.863 114.093C168.943 112.243 168.341 110.428 167.172 108.992C166.003 107.556 164.348 106.599 162.52 106.301L162.315 106.272Z" fill="#6C63FF"/>
<path opacity="0.1" d="M162.528 106.237C162.528 106.237 165.804 119.296 158.647 127.816" stroke="#535461" stroke-miterlimit="10"/>
<path opacity="0.1" d="M158.452 129.023C158.452 129.023 163.662 116.181 173.392 111.418C177.489 109.446 180.836 106.197 182.928 102.161C183.906 100.238 184.706 98.2297 185.317 96.1611" stroke="#535461" stroke-width="2" stroke-miterlimit="10"/>
<path opacity="0.1" d="M191.431 93.1253C190.417 94.4002 185.168 96.2664 185.168 96.2664C185.168 96.2664 185.8 90.7232 186.814 89.4575C187.045 89.1271 187.342 88.8476 187.685 88.6361C188.029 88.4246 188.412 88.2856 188.811 88.2277C189.211 88.1698 189.617 88.1942 190.007 88.2995C190.396 88.4047 190.76 88.5885 191.076 88.8395C191.391 89.0906 191.652 89.4036 191.843 89.7593C192.033 90.115 192.148 90.5059 192.182 90.9079C192.215 91.3098 192.166 91.7144 192.037 92.0967C191.909 92.479 191.703 92.8309 191.433 93.1308L191.431 93.1253Z" fill="#6C63FF"/>
<path opacity="0.1" d="M189.63 103.223C188.085 103.742 182.668 102.451 182.668 102.451C182.668 102.451 186.206 98.1492 187.751 97.63C188.125 97.4767 188.527 97.4017 188.931 97.4098C189.335 97.4178 189.734 97.5088 190.101 97.6769C190.469 97.8451 190.798 98.0869 191.069 98.3874C191.34 98.6879 191.546 99.0407 191.674 99.424C191.803 99.8073 191.852 100.213 191.818 100.616C191.784 101.019 191.667 101.41 191.475 101.767C191.284 102.123 191.021 102.436 190.704 102.686C190.386 102.937 190.021 103.119 189.63 103.223Z" fill="#6C63FF"/>
<path opacity="0.1" d="M179.863 115.161C178.268 114.83 174.242 110.98 174.242 110.98C174.242 110.98 179.468 109.053 181.064 109.383C181.786 109.585 182.405 110.053 182.795 110.694C183.185 111.334 183.317 112.099 183.165 112.833C183.012 113.567 182.586 114.216 181.973 114.648C181.36 115.08 180.606 115.263 179.863 115.159V115.161Z" fill="#6C63FF"/>
<path opacity="0.1" d="M170.44 122.53C168.812 122.473 164.192 119.359 164.192 119.359C164.192 119.359 169.019 116.573 170.646 116.632C171.393 116.708 172.082 117.065 172.575 117.63C173.068 118.196 173.328 118.927 173.302 119.677C173.275 120.427 172.965 121.138 172.434 121.668C171.902 122.197 171.189 122.505 170.44 122.528V122.53Z" fill="#6C63FF"/>
<path opacity="0.1" d="M177.624 98.8347C177.832 100.451 181.36 104.76 181.36 104.76C181.36 104.76 183.682 99.6976 183.475 98.0808C183.45 97.6771 183.342 97.2829 183.158 96.9226C182.974 96.5623 182.718 96.2436 182.406 95.9861C182.094 95.7287 181.733 95.538 181.344 95.4258C180.956 95.3137 180.548 95.2825 180.147 95.3342C179.746 95.3859 179.359 95.5194 179.012 95.7263C178.664 95.9333 178.363 96.2094 178.127 96.5375C177.89 96.8656 177.723 97.2388 177.637 97.6339C177.55 98.0291 177.546 98.4378 177.624 98.8347Z" fill="#6C63FF"/>
<path opacity="0.1" d="M166.711 107.6C167.393 109.078 172.049 112.136 172.049 112.136C172.049 112.136 172.751 106.61 172.069 105.132C171.924 104.754 171.703 104.411 171.42 104.123C171.136 103.834 170.797 103.607 170.422 103.455C170.048 103.303 169.646 103.229 169.242 103.239C168.838 103.248 168.44 103.34 168.073 103.509C167.705 103.679 167.377 103.921 167.107 104.223C166.838 104.524 166.633 104.877 166.505 105.261C166.378 105.644 166.33 106.05 166.365 106.453C166.401 106.855 166.518 107.247 166.711 107.602V107.6Z" fill="#6C63FF"/>
<path opacity="0.1" d="M157.273 117.567C157.694 119.141 161.768 122.94 161.768 122.94C161.768 122.94 163.394 117.613 162.971 116.039C162.892 115.642 162.733 115.265 162.503 114.932C162.273 114.599 161.977 114.317 161.633 114.103C161.289 113.89 160.905 113.749 160.505 113.689C160.105 113.63 159.696 113.653 159.305 113.758C158.914 113.863 158.549 114.047 158.232 114.299C157.915 114.55 157.654 114.865 157.463 115.222C157.272 115.579 157.157 115.971 157.124 116.375C157.092 116.778 157.142 117.184 157.273 117.567Z" fill="#6C63FF"/>
<path opacity="0.25" d="M191.431 93.1253C190.417 94.4002 185.168 96.2664 185.168 96.2664C185.168 96.2664 185.8 90.7232 186.814 89.4575C187.045 89.1271 187.342 88.8476 187.685 88.6361C188.029 88.4246 188.412 88.2856 188.811 88.2277C189.211 88.1698 189.617 88.1942 190.007 88.2995C190.396 88.4047 190.76 88.5885 191.076 88.8395C191.391 89.0906 191.652 89.4036 191.843 89.7593C192.033 90.115 192.148 90.5059 192.182 90.9079C192.215 91.3098 192.166 91.7144 192.037 92.0967C191.909 92.479 191.703 92.8309 191.433 93.1308L191.431 93.1253Z" fill="black"/>
<path opacity="0.25" d="M189.63 103.223C188.085 103.742 182.668 102.451 182.668 102.451C182.668 102.451 186.206 98.1492 187.751 97.63C188.125 97.4767 188.527 97.4017 188.931 97.4098C189.335 97.4178 189.734 97.5088 190.101 97.6769C190.469 97.8451 190.798 98.0869 191.069 98.3874C191.34 98.6879 191.546 99.0407 191.674 99.424C191.803 99.8073 191.852 100.213 191.818 100.616C191.784 101.019 191.667 101.41 191.475 101.767C191.284 102.123 191.021 102.436 190.704 102.686C190.386 102.937 190.021 103.119 189.63 103.223Z" fill="black"/>
<path opacity="0.25" d="M179.863 115.161C178.268 114.83 174.242 110.98 174.242 110.98C174.242 110.98 179.468 109.053 181.064 109.383C181.786 109.585 182.405 110.053 182.795 110.694C183.185 111.334 183.317 112.099 183.165 112.833C183.012 113.567 182.586 114.216 181.973 114.648C181.36 115.08 180.606 115.263 179.863 115.159V115.161Z" fill="black"/>
<path opacity="0.25" d="M170.44 122.53C168.812 122.473 164.192 119.359 164.192 119.359C164.192 119.359 169.019 116.573 170.646 116.632C171.393 116.708 172.082 117.065 172.575 117.63C173.068 118.196 173.328 118.927 173.302 119.677C173.275 120.427 172.965 121.138 172.434 121.668C171.902 122.197 171.189 122.505 170.44 122.528V122.53Z" fill="black"/>
<path opacity="0.25" d="M177.624 98.8347C177.832 100.451 181.36 104.76 181.36 104.76C181.36 104.76 183.682 99.6976 183.475 98.0808C183.45 97.6771 183.342 97.2829 183.158 96.9226C182.974 96.5623 182.718 96.2436 182.406 95.9861C182.094 95.7287 181.733 95.538 181.344 95.4258C180.956 95.3137 180.548 95.2825 180.147 95.3342C179.746 95.3859 179.359 95.5194 179.012 95.7263C178.664 95.9333 178.363 96.2094 178.127 96.5375C177.89 96.8656 177.723 97.2388 177.637 97.6339C177.55 98.0291 177.546 98.4378 177.624 98.8347Z" fill="black"/>
<path opacity="0.25" d="M166.711 107.6C167.393 109.078 172.049 112.136 172.049 112.136C172.049 112.136 172.751 106.61 172.069 105.132C171.924 104.754 171.703 104.411 171.42 104.123C171.136 103.834 170.797 103.607 170.422 103.455C170.048 103.303 169.646 103.229 169.242 103.239C168.838 103.248 168.44 103.34 168.073 103.509C167.705 103.679 167.377 103.921 167.107 104.223C166.838 104.524 166.633 104.877 166.505 105.261C166.378 105.644 166.33 106.05 166.365 106.453C166.401 106.855 166.518 107.247 166.711 107.602V107.6Z" fill="black"/>
<path opacity="0.25" d="M157.273 117.567C157.694 119.141 161.768 122.94 161.768 122.94C161.768 122.94 163.394 117.613 162.971 116.039C162.892 115.642 162.733 115.265 162.503 114.932C162.273 114.599 161.977 114.317 161.633 114.103C161.289 113.89 160.905 113.749 160.505 113.689C160.105 113.63 159.696 113.653 159.305 113.758C158.914 113.863 158.549 114.047 158.232 114.299C157.915 114.55 157.654 114.865 157.463 115.222C157.272 115.579 157.157 115.971 157.124 116.375C157.092 116.778 157.142 117.184 157.273 117.567Z" fill="black"/>
<path opacity="0.1" d="M165.392 134.865C165.392 134.865 170.602 122.024 180.332 117.26C184.428 115.287 187.772 112.038 189.863 108.001C190.841 106.079 191.641 104.07 192.252 102.002" stroke="#535461" stroke-width="2" stroke-miterlimit="10"/>
<path opacity="0.1" d="M198.362 98.9641C197.348 100.239 192.099 102.105 192.099 102.105C192.099 102.105 192.73 96.562 193.745 95.2963C194.248 94.7366 194.947 94.3901 195.697 94.3275C196.447 94.265 197.193 94.4911 197.783 94.9597C198.372 95.4284 198.76 96.1042 198.868 96.8494C198.976 97.5946 198.796 98.3529 198.364 98.9696L198.362 98.9641Z" fill="#6C63FF"/>
<path opacity="0.1" d="M196.565 109.062C195.02 109.581 189.602 108.29 189.602 108.29C189.602 108.29 193.141 103.988 194.685 103.469C195.411 103.276 196.183 103.367 196.844 103.723C197.506 104.079 198.007 104.673 198.246 105.385C198.485 106.097 198.444 106.873 198.132 107.556C197.82 108.239 197.259 108.777 196.565 109.062Z" fill="#6C63FF"/>
<path opacity="0.1" d="M186.797 121.007C185.203 120.677 181.177 116.826 181.177 116.826C181.177 116.826 186.402 114.899 187.998 115.23C188.721 115.431 189.34 115.899 189.73 116.54C190.12 117.18 190.252 117.945 190.099 118.679C189.946 119.413 189.52 120.062 188.907 120.494C188.294 120.926 187.54 121.109 186.797 121.006V121.007Z" fill="#6C63FF"/>
<path opacity="0.1" d="M177.372 128.367C175.744 128.31 171.125 125.196 171.125 125.196C171.125 125.196 175.951 122.413 177.579 122.471C178.325 122.547 179.015 122.904 179.508 123.469C180.001 124.034 180.261 124.766 180.234 125.516C180.208 126.265 179.898 126.977 179.366 127.506C178.835 128.036 178.122 128.343 177.372 128.367Z" fill="#6C63FF"/>
<path opacity="0.1" d="M184.556 104.681C184.765 106.298 188.292 110.607 188.292 110.607C188.292 110.607 190.615 105.544 190.408 103.927C190.382 103.523 190.275 103.129 190.091 102.769C189.907 102.409 189.651 102.09 189.339 101.832C189.027 101.575 188.666 101.384 188.277 101.272C187.888 101.16 187.481 101.129 187.08 101.18C186.678 101.232 186.292 101.366 185.945 101.573C185.597 101.779 185.296 102.056 185.059 102.384C184.823 102.712 184.656 103.085 184.569 103.48C184.483 103.875 184.478 104.284 184.556 104.681Z" fill="#6C63FF"/>
<path opacity="0.1" d="M173.645 113.432C174.327 114.91 178.983 117.968 178.983 117.968C178.983 117.968 179.686 112.441 179.004 110.963C178.646 110.303 178.05 109.803 177.338 109.566C176.625 109.329 175.849 109.372 175.166 109.686C174.484 110.001 173.947 110.563 173.665 111.259C173.382 111.955 173.375 112.733 173.645 113.434V113.432Z" fill="#6C63FF"/>
<path opacity="0.1" d="M164.207 123.409C164.628 124.984 168.703 128.783 168.703 128.783C168.703 128.783 170.329 123.456 169.906 121.881C169.664 121.171 169.161 120.58 168.499 120.227C167.837 119.873 167.066 119.785 166.341 119.979C165.617 120.174 164.993 120.636 164.597 121.273C164.201 121.91 164.061 122.674 164.207 123.409Z" fill="#6C63FF"/>
</g>
<path opacity="0.1" d="M2.18958 79.4466C5.39722 93.1567 12.1876 105.008 22.9192 110.753C45.2212 122.691 95.5181 116.534 133.056 109.459C152.023 105.897 169.24 96.0568 181.934 81.5216L2.18958 79.4466Z" fill="#6C63FF"/>
<path opacity="0.1" d="M199.037 14.913H178.44C177.968 14.913 177.515 14.7254 177.181 14.3915C176.847 14.0577 176.66 13.6048 176.66 13.1327C176.66 12.6605 176.847 12.2077 177.181 11.8738C177.515 11.54 177.968 11.3524 178.44 11.3524H182.001C181.529 11.3524 181.076 11.1648 180.742 10.831C180.408 10.4971 180.22 10.0443 180.22 9.57212C180.22 9.09996 180.408 8.64714 180.742 8.31328C181.076 7.97941 181.529 7.79184 182.001 7.79184H179.458C178.986 7.79184 178.533 7.60428 178.199 7.27041C177.866 6.93654 177.678 6.48372 177.678 6.01156C177.678 5.5394 177.866 5.08658 178.199 4.75271C178.533 4.41885 178.986 4.23128 179.458 4.23128H190.208C187.823 3.12265 185.035 2.33367 181.823 1.91978C152.511 -1.84588 142.046 0.644851 138.354 3.21319C133.799 6.37279 128.718 8.69723 123.287 9.81695C105.2 13.5438 71.3775 18.0338 40.722 8.37572C25.4856 3.57164 14.161 11.6868 7.37427 25.2417H202.612C202.357 21.3024 201.594 17.6661 200.193 14.4806C199.872 14.7589 199.462 14.9124 199.037 14.913Z" fill="#6C63FF"/>
<path opacity="0.1" d="M0.441643 50.8309C-0.349088 58.8048 -0.0800603 66.8483 1.24171 74.7515L182.075 81.3645C187.108 75.5739 191.335 69.1284 194.639 62.2036L0.441643 50.8309ZM71.9633 67.8946H68.4027C68.8749 67.8946 69.3277 68.0822 69.6616 68.416C69.9955 68.7499 70.183 69.2027 70.183 69.6749C70.183 70.147 69.9955 70.5999 69.6616 70.9337C69.3277 71.2676 68.8749 71.4552 68.4027 71.4552H47.8062C47.334 71.4552 46.8812 71.2676 46.5473 70.9337C46.2135 70.5999 46.0259 70.147 46.0259 69.6749C46.0259 69.2027 46.2135 68.7499 46.5473 68.416C46.8812 68.0822 47.334 67.8946 47.8062 67.8946H51.3667C50.8946 67.8946 50.4418 67.707 50.1079 67.3732C49.774 67.0393 49.5865 66.5865 49.5865 66.1143C49.5865 65.6422 49.774 65.1893 50.1079 64.8555C50.4418 64.5216 50.8946 64.334 51.3667 64.334H48.8243C48.3521 64.334 47.8993 64.1465 47.5654 63.8126C47.2316 63.4787 47.044 63.0259 47.044 62.5538C47.044 62.0816 47.2316 61.6288 47.5654 61.2949C47.8993 60.961 48.3521 60.7735 48.8243 60.7735H69.4208C69.893 60.7735 70.3458 60.961 70.6797 61.2949C71.0136 61.6288 71.2011 62.0816 71.2011 62.5538C71.2011 63.0259 71.0136 63.4787 70.6797 63.8126C70.3458 64.1465 69.893 64.334 69.4208 64.334H71.9633C72.4355 64.334 72.8883 64.5216 73.2222 64.8555C73.556 65.1893 73.7436 65.6422 73.7436 66.1143C73.7436 66.5865 73.556 67.0393 73.2222 67.3732C72.8883 67.707 72.4355 67.8946 71.9633 67.8946Z" fill="#6C63FF"/>
<path opacity="0.1" d="M202.621 25.3655L5.19397 30.1696C2.79378 36.3429 1.21028 43.3217 0.471191 50.5555H199.162C200.46 46.3062 201.419 41.961 202.032 37.5605C202.623 33.3089 202.86 29.1959 202.621 25.3655ZM40.552 41.1026H36.9914C37.4636 41.1026 37.9164 41.2902 38.2503 41.624C38.5841 41.9579 38.7717 42.4107 38.7717 42.8829C38.7717 43.355 38.5841 43.8079 38.2503 44.1417C37.9164 44.4756 37.4636 44.6632 36.9914 44.6632H16.3949C15.9227 44.6632 15.4699 44.4756 15.136 44.1417C14.8021 43.8079 14.6146 43.355 14.6146 42.8829C14.6146 42.4107 14.8021 41.9579 15.136 41.624C15.4699 41.2902 15.9227 41.1026 16.3949 41.1026H19.9554C19.4833 41.1026 19.0304 40.915 18.6966 40.5812C18.3627 40.2473 18.1751 39.7945 18.1751 39.3223C18.1751 38.8502 18.3627 38.3973 18.6966 38.0635C19.0304 37.7296 19.4833 37.542 19.9554 37.542H17.413C16.9408 37.542 16.488 37.3545 16.1541 37.0206C15.8202 36.6867 15.6327 36.2339 15.6327 35.7618C15.6327 35.2896 15.8202 34.8368 16.1541 34.5029C16.488 34.169 16.9408 33.9815 17.413 33.9815H38.0095C38.4817 33.9815 38.9345 34.169 39.2684 34.5029C39.6022 34.8368 39.7898 35.2896 39.7898 35.7618C39.7898 36.2339 39.6022 36.6867 39.2684 37.0206C38.9345 37.3545 38.4817 37.542 38.0095 37.542H40.552C41.0242 37.542 41.477 37.7296 41.8108 38.0635C42.1447 38.3973 42.3323 38.8502 42.3323 39.3223C42.3323 39.7945 42.1447 40.2473 41.8108 40.5812C41.477 40.915 41.0242 41.1026 40.552 41.1026Z" fill="#6C63FF"/>
<path d="M173.442 149.906C173.442 149.906 165.209 104.747 149.509 97.4194C136.205 91.2055 121.819 87.0167 117.728 85.8803C117.117 84.8964 116.411 83.9748 115.619 83.1291C110.028 77.2921 106.669 77.4011 106.126 77.4732C105.868 76.3157 105.683 75.1432 105.572 73.9625C105.555 73.7778 105.538 73.6059 105.523 73.423L105.572 73.399C105.538 73.0497 105.509 72.6894 105.483 72.318C107.765 71.0999 109.867 69.5694 111.726 67.7708C111.75 67.8503 111.771 67.9297 111.796 68.011C115.826 64.605 119.772 61.1067 123.635 57.5159C124.743 56.4794 125.908 55.3541 126.284 53.8925C126.405 53.3896 126.452 52.8717 126.423 52.3552C126.473 51.2466 126.211 50.114 126.166 48.9905C126.166 48.8058 126.187 48.6339 126.211 48.4584C126.469 46.6199 127.748 45.1103 128.797 43.5675C131.419 39.6685 132.788 35.0617 132.72 30.3636C132.749 28.1125 132.437 25.8699 131.796 23.7118C130.978 20.9735 129.274 18.0966 126.438 17.4979C125.34 17.267 124.2 17.4111 123.081 17.339C118.445 17.0434 114.975 13.274 111.277 10.5117C106.765 7.15662 101.428 5.08539 95.834 4.51768C94.0879 4.33291 92.2845 4.31998 90.6234 4.87429C86.8929 6.11596 84.6276 9.94999 81.0338 11.5261C78.3767 12.6976 75.3058 12.5072 72.5342 13.3868C68.4083 14.6986 64.9068 18.9299 64.8145 23.2776C64.8145 23.4384 64.8145 23.5991 64.8145 23.7599C64.8145 23.7876 64.8145 23.8153 64.8145 23.8412C64.7683 26.0381 65.5535 28.2757 65.6164 30.5244C65.6164 30.7276 65.6194 30.9315 65.6256 31.136C65.6053 33.5639 65.3152 35.9992 64.4301 38.2811C63.9534 39.5099 63.34 40.9326 63.4398 42.1614C63.3843 42.9134 63.5303 43.6192 64.0532 44.1938L64.9456 43.4067C64.6463 45.0267 64.496 46.6706 64.4966 48.318C64.4966 56.6216 68.2734 64.0569 74.2304 69.0605C74.2649 69.6136 74.2982 70.2061 74.3302 70.838C74.4707 73.5763 74.5815 77.0113 74.5501 80.7547L65.8362 88.7646L43.4345 98.9271C43.4345 98.9271 22.9469 103.254 27.3593 132.036L29.4657 149.908H48.1702L48.1277 150.002H75.8897L75.9063 149.908H141.959L141.946 150.002H144.533V149.908L173.442 149.906ZM106.29 77.9314C106.857 79.1027 107.302 80.3285 107.621 81.5899C106.967 80.3761 106.484 79.0778 106.185 77.7319L106.213 77.7818L106.29 77.9314ZM74.5427 81.6269C74.5427 81.9792 74.5366 82.3346 74.5242 82.693L74.4799 82.7558C74.4769 82.3755 74.4979 81.9953 74.5427 81.6176V81.6269Z" fill="url(#paint0_linear)"/>
<path d="M173.442 149.906C173.442 149.906 165.209 104.747 149.509 97.4194C136.205 91.2055 121.819 87.0167 117.728 85.8803C117.117 84.8964 116.411 83.9748 115.619 83.1291C110.028 77.2921 106.669 77.4011 106.126 77.4732C105.868 76.3157 105.683 75.1432 105.572 73.9625C105.555 73.7778 105.538 73.6059 105.523 73.423L105.572 73.399C105.538 73.0497 105.509 72.6894 105.483 72.318C107.765 71.0999 109.867 69.5694 111.726 67.7708C111.75 67.8503 111.771 67.9297 111.796 68.011C115.826 64.605 119.772 61.1067 123.635 57.5159C124.743 56.4794 125.908 55.3541 126.284 53.8925C126.405 53.3896 126.452 52.8717 126.423 52.3552C126.473 51.2466 126.211 50.114 126.166 48.9905C126.166 48.8058 126.187 48.6339 126.211 48.4584C126.469 46.6199 127.748 45.1103 128.797 43.5675C131.419 39.6685 132.788 35.0617 132.72 30.3636C132.749 28.1125 132.437 25.8699 131.796 23.7118C130.978 20.9735 129.274 18.0966 126.438 17.4979C125.34 17.267 124.2 17.4111 123.081 17.339C118.445 17.0434 114.975 13.274 111.277 10.5117C106.765 7.15662 101.428 5.08539 95.834 4.51768C94.0879 4.33291 92.2845 4.31998 90.6234 4.87429C86.8929 6.11596 84.6276 9.94999 81.0338 11.5261C78.3767 12.6976 75.3058 12.5072 72.5342 13.3868C68.4083 14.6986 64.9068 18.9299 64.8145 23.2776C64.8145 23.4384 64.8145 23.5991 64.8145 23.7599C64.8145 23.7876 64.8145 23.8153 64.8145 23.8412C64.7683 26.0381 65.5535 28.2757 65.6164 30.5244C65.6164 30.7276 65.6194 30.9315 65.6256 31.136C65.6053 33.5639 65.3152 35.9992 64.4301 38.2811C63.9534 39.5099 63.34 40.9326 63.4398 42.1614C63.3843 42.9134 63.5303 43.6192 64.0532 44.1938L64.9456 43.4067C64.6463 45.0267 64.496 46.6706 64.4966 48.318C64.4966 56.6216 68.2734 64.0569 74.2304 69.0605C74.2649 69.6136 74.2982 70.2061 74.3302 70.838C74.4707 73.5763 74.5815 77.0113 74.5501 80.7547L65.8362 88.7646L43.4345 98.9271C43.4345 98.9271 22.9469 103.254 27.3593 132.036L29.4657 149.908H48.1702L48.1277 150.002H75.8897L75.9063 149.908H141.959L141.946 150.002H144.533V149.908L173.442 149.906ZM106.29 77.9314C106.857 79.1027 107.302 80.3285 107.621 81.5899C106.967 80.3761 106.484 79.0778 106.185 77.7319L106.213 77.7818L106.29 77.9314ZM74.5427 81.6269C74.5427 81.9792 74.5366 82.3346 74.5242 82.693L74.4799 82.7558C74.4769 82.3755 74.4979 81.9953 74.5427 81.6176V81.6269Z" fill="url(#paint1_linear)"/>
<path d="M113.598 86.1593L109.903 121.451L90.1319 127.733C90.1319 127.733 64.4485 122.929 71.1003 109.071C75.8324 99.2135 75.7012 81.5973 75.2319 72.2478C75.0471 68.4526 74.7958 66.0191 74.7958 66.0191C74.7958 66.0191 108.424 36.6403 105.653 63.0628C105.117 68.1791 105.086 72.1794 105.383 75.3058C106.63 88.3211 113.598 86.1593 113.598 86.1593Z" fill="#FDC2CC"/>
<path opacity="0.03" d="M113.598 86.1593L109.903 121.451L90.1319 127.733C90.1319 127.733 64.4485 122.929 71.1003 109.071C75.8324 99.2135 75.7012 81.5973 75.2319 72.2478C75.0471 68.4526 74.7958 66.0191 74.7958 66.0191C74.7958 66.0191 108.424 36.6403 105.653 63.0628C105.117 68.1791 105.086 72.1794 105.383 75.3058C106.63 88.3211 113.598 86.1593 113.598 86.1593Z" fill="black"/>
<path opacity="0.1" d="M105.653 62.5085C105.117 67.6248 105.085 71.6251 105.383 74.7515C100.636 77.3433 95.215 78.4383 89.8338 77.8925C84.4525 77.3468 79.3622 75.1858 75.2318 71.6935C75.0471 67.8983 74.7958 65.4648 74.7958 65.4648C74.7958 65.4648 108.424 36.086 105.653 62.5085Z" fill="black"/>
<path d="M92.5339 76.9226C107.331 76.9226 119.326 64.9274 119.326 50.1306C119.326 35.3338 107.331 23.3386 92.5339 23.3386C77.7371 23.3386 65.7419 35.3338 65.7419 50.1306C65.7419 64.9274 77.7371 76.9226 92.5339 76.9226Z" fill="#FDC2CC"/>
<path opacity="0.03" d="M92.5339 76.9226C107.331 76.9226 119.326 64.9274 119.326 50.1306C119.326 35.3338 107.331 23.3386 92.5339 23.3386C77.7371 23.3386 65.7419 35.3338 65.7419 50.1306C65.7419 64.9274 77.7371 76.9226 92.5339 76.9226Z" fill="black"/>
<path opacity="0.1" d="M48.3734 121.82C48.3734 121.82 57.0577 139.559 57.5196 149.998L48.3734 121.82Z" fill="black"/>
<path opacity="0.1" d="M142.977 131.985L140.482 150H142.977V131.985Z" fill="black"/>
<path opacity="0.1" d="M50.3135 149.998L64.079 118.679C64.079 118.679 67.9592 111.288 68.8831 103.897C69.807 96.5066 74.7958 84.8659 74.7958 84.8659C74.7958 84.8659 87.1755 69.1603 92.9035 71.3775C98.6314 73.5948 87.9146 81.9095 87.9146 81.9095C87.9146 81.9095 103.62 88.007 92.9035 106.115C82.1867 124.222 82.0019 120.896 82.0019 120.896L76.7359 149.998H50.3135Z" fill="black"/>
<path d="M49.944 149.998L63.7095 118.679C63.7095 118.679 67.5897 111.288 68.5136 103.897C69.1012 99.1987 71.3314 92.7816 72.8779 88.7295C73.8874 86.0804 75.3728 83.6382 77.2607 81.5234C81.2629 77.0445 88.5318 69.8218 92.534 71.3738C98.2619 73.5911 87.5451 81.9059 87.5451 81.9059C87.5451 81.9059 103.251 88.0034 92.534 106.111C81.8172 124.219 81.6324 120.893 81.6324 120.893L76.3664 149.994L49.944 149.998Z" fill="#FDC2CC"/>
<path opacity="0.15" d="M100.756 35.6259C101.062 35.6259 101.311 35.3778 101.311 35.0716C101.311 34.7655 101.062 34.5173 100.756 34.5173C100.45 34.5173 100.202 34.7655 100.202 35.0716C100.202 35.3778 100.45 35.6259 100.756 35.6259Z" fill="white"/>
<path opacity="0.15" d="M98.1696 36.7346C98.4757 36.7346 98.7239 36.4864 98.7239 36.1803C98.7239 35.8741 98.4757 35.6259 98.1696 35.6259C97.8634 35.6259 97.6152 35.8741 97.6152 36.1803C97.6152 36.4864 97.8634 36.7346 98.1696 36.7346Z" fill="white"/>
<path opacity="0.1" d="M73.5005 16.3671C76.1742 15.5024 79.1416 15.689 81.7062 14.5397C85.1744 12.9839 87.3603 9.21828 90.9596 7.99878C92.5635 7.45555 94.304 7.47588 95.9873 7.64957C101.4 8.21291 106.555 10.2496 110.891 13.5383C114.459 16.2526 117.807 19.9536 122.28 20.2436C123.361 20.3139 124.461 20.1716 125.519 20.3989C128.261 20.9864 129.904 23.8116 130.693 26.4963C131.606 29.6781 131.82 33.0196 131.32 36.2917C130.821 39.5639 129.62 42.6894 127.8 45.454C126.787 46.9691 125.553 48.4528 125.303 50.2581C125.059 52.0282 125.813 53.863 125.373 55.5961C125.004 57.0318 123.895 58.1367 122.816 59.1548C119.09 62.6791 115.282 66.1128 111.392 69.4559C109.37 63.0332 112.336 56.1172 111.874 49.4007C111.689 46.7843 110.765 43.9278 108.458 42.6935C106.298 41.5405 103.537 42.1392 101.351 41.0305C98.9122 39.8018 97.9108 36.8916 96.0667 34.8776C92.9256 31.4408 87.473 30.9974 83.081 32.5495C78.6889 34.1016 75.0988 37.2944 71.6251 40.4078L65.3114 46.0711C64.079 44.6816 65.0139 42.5494 65.681 40.8125C66.675 38.2091 66.8931 35.4024 66.8265 32.6382C66.773 30.4209 66.008 28.2314 66.0523 26.0732C66.141 21.8161 69.5187 17.655 73.5005 16.3671Z" fill="black"/>
<path d="M73.5005 15.8128C76.1742 14.9481 79.1416 15.1347 81.7062 13.9854C85.1744 12.4296 87.3603 8.66397 90.9596 7.44447C92.5635 6.90124 94.304 6.92157 95.9873 7.09525C101.4 7.65859 106.555 9.69533 110.891 12.9839C114.459 15.6983 117.807 19.3992 122.28 19.6893C123.361 19.7595 124.461 19.6173 125.519 19.8445C128.261 20.4321 129.904 23.2573 130.693 25.942C131.606 29.1238 131.82 32.4652 131.32 35.7374C130.821 39.0096 129.62 42.1351 127.8 44.8997C126.787 46.4148 125.553 47.8985 125.303 49.7038C125.059 51.4739 125.813 53.3087 125.373 55.0418C125.004 56.4775 123.895 57.5824 122.816 58.6005C119.09 62.1248 115.282 65.5584 111.392 68.9016C109.37 62.4789 112.336 55.5629 111.874 48.8464C111.689 46.23 110.765 43.3735 108.458 42.1392C106.298 40.9862 103.537 41.5849 101.351 40.4762C98.9122 39.2475 97.9108 36.3373 96.0667 34.3233C92.9256 30.8865 87.473 30.4431 83.081 31.9952C78.6889 33.5473 75.0988 36.7401 71.6251 39.8535L65.3114 45.5168C64.079 44.1273 65.0139 41.9951 65.681 40.2582C66.675 37.6547 66.8931 34.8481 66.8265 32.0839C66.773 29.8666 66.008 27.677 66.0523 25.5189C66.141 21.2617 69.5187 17.1007 73.5005 15.8128Z" fill="#865A61"/>
</g>
<defs>
<linearGradient id="paint0_linear" x1="100.087" y1="149.998" x2="100.087" y2="4.39388" gradientUnits="userSpaceOnUse">
<stop stop-color="#808080" stop-opacity="0.25"/>
<stop offset="0.54" stop-color="#808080" stop-opacity="0.12"/>
<stop offset="1" stop-color="#808080" stop-opacity="0.1"/>
</linearGradient>
<linearGradient id="paint1_linear" x1="100.089" y1="4.40316" x2="100.089" y2="150.002" gradientUnits="userSpaceOnUse">
<stop stop-color="white"/>
<stop offset="1" stop-color="white" stop-opacity="0"/>
</linearGradient>
<clipPath id="clip0">
<rect width="202.714" height="150" fill="white"/>
</clipPath>
</defs>
</svg>
