<svg width="61" height="65" viewBox="0 0 61 65" fill="none" xmlns="http://www.w3.org/2000/svg">
    <path d="M15.8163 30.7776H11.5416C10.8363 30.7776 10.2592 30.2005 10.2592 29.4952V25.2205C10.2592 24.5152 10.8363 23.9381 11.5416 23.9381H15.8163C16.5216 23.9381 17.0987 24.5152 17.0987 25.2205V29.4952C17.0987 30.2005 16.5216 30.7776 15.8163 30.7776ZM27.3579 29.4952V25.2205C27.3579 24.5152 26.7808 23.9381 26.0755 23.9381H21.8008C21.0955 23.9381 20.5184 24.5152 20.5184 25.2205V29.4952C20.5184 29.4952 21.0955 30.7776 21.8008 30.7776H26.0755C26.7808 30.7776 27.3579 30.2005 27.3579 29.4952ZM37.6171 29.4952V25.2205C37.6171 24.5152 37.04 23.9381 36.3347 23.9381H32.06C31.3547 23.9381 30.7776 24.5152 30.7776 25.2205V29.4952C30.7776 30.2005 31.3547 30.7776 32.06 30.7776H36.3347C37.04 30.7776 37.6171 30.2005 37.6171 29.4952ZM27.3579 39.7544V35.4797C27.3579 34.7744 26.7808 34.1973 26.0755 34.1973H21.8008C21.0955 34.1973 20.5184 34.7744 20.5184 35.4797V39.7544C20.5184 40.4597 21.0955 41.0368 21.8008 41.0368H26.0755C26.7808 41.0368 27.3579 40.4597 27.3579 39.7544ZM17.0987 39.7544V35.4797C17.0987 34.7744 16.5216 34.1973 15.8163 34.1973H11.5416C10.8363 34.1973 10.2592 34.7744 10.2592 35.4797V39.7544C10.2592 40.4597 10.8363 41.0368 11.5416 41.0368H15.8163C16.5216 41.0368 17.0987 40.4597 17.0987 39.7544ZM37.6171 39.7544V35.4797C37.6171 34.7744 37.04 34.1973 36.3347 34.1973H32.06C31.3547 34.1973 30.7776 34.7744 30.7776 35.4797V39.7544C30.7776 40.4597 31.3547 41.0368 32.06 41.0368H36.3347C37.04 41.0368 37.6171 40.4597 37.6171 39.7544ZM47.8763 11.9691V49.5862C47.8763 52.4181 45.5787 54.7158 42.7467 54.7158H5.1296C2.29763 54.7158 0 52.4181 0 49.5862V11.9691C0 9.1371 2.29763 6.83947 5.1296 6.83947H10.2592V1.2824C10.2592 0.57708 10.8363 0 11.5416 0H15.8163C16.5216 0 17.0987 0.57708 17.0987 1.2824V6.83947H30.7776V1.2824C30.7776 0.57708 31.3547 0 32.06 0H36.3347C37.04 0 37.6171 0.57708 37.6171 1.2824V6.83947H42.7467C45.5787 6.83947 47.8763 9.1371 47.8763 11.9691ZM42.7467 48.945V17.0987H5.1296V48.945C5.1296 49.2976 5.41814 49.5862 5.7708 49.5862H42.1055C42.4581 49.5862 42.7467 49.2976 42.7467 48.945Z"
          fill="#8400F0"/>
    <g clip-path="url(#clip0)">
        <path d="M44.9631 44.5952L44.9028 32.0752C44.9011 31.7224 44.6139 31.4352 44.2614 31.4339C41.7939 31.4221 39.8028 33.4132 39.8146 35.8807L39.8566 44.5707L37.9864 44.5618C37.735 43.9877 37.3744 43.4496 36.9038 42.9791C34.9 40.9752 31.6667 40.9598 29.6819 42.9445C27.6971 44.9293 27.7126 48.1626 29.7164 50.1665C31.7203 52.1703 34.9536 52.1858 36.9384 50.201C37.1083 50.0311 37.2628 49.8524 37.4034 49.6658L39.8806 49.6776L39.8925 52.1549C39.7058 52.2954 39.5268 52.4503 39.3572 52.6199C37.3724 54.6046 37.3879 57.838 39.3918 59.8418C41.3956 61.8457 44.6289 61.8611 46.6137 59.8764C48.5985 57.8916 48.583 54.6583 46.5792 52.6544C46.1086 52.1839 45.5705 51.8232 44.9965 51.5719L44.9875 49.7017L53.6775 49.7436C56.145 49.7554 58.1362 47.7643 58.1244 45.2968C58.123 44.9444 57.8358 44.6571 57.483 44.6554L44.9631 44.5952ZM34.5195 47.7822C33.8592 48.4425 32.7789 48.4374 32.1122 47.7707C31.4455 47.104 31.4404 46.0237 32.1007 45.3634C32.7611 44.703 33.8413 44.7082 34.508 45.3749C35.1747 46.0416 35.1799 47.1219 34.5195 47.7822ZM44.1949 57.4575C43.5345 58.1179 42.4543 58.1127 41.7876 57.446C41.1209 56.7793 41.1157 55.699 41.776 55.0387C42.4364 54.3784 43.5167 54.3835 44.1834 55.0502C44.85 55.7169 44.8552 56.7972 44.1949 57.4575Z"
              fill="#BBBBBB"/>
    </g>
    <defs>
        <clipPath id="clip0">
            <rect width="23.7172" height="27.366" fill="white" transform="translate(24.8788 45.3288) rotate(-45)"/>
        </clipPath>
    </defs>
</svg>
