<svg width="218" height="150" viewBox="0 0 218 150" fill="none" xmlns="http://www.w3.org/2000/svg">
<g clip-path="url(#clip0)">
<path opacity="0.1" d="M122.897 20.422C108.97 20.4406 95.5644 16.4926 82.7423 12.1067C69.9201 7.72088 57.1967 2.80963 43.5287 0.728496C34.7383 -0.609243 24.7426 -0.486276 17.8713 4.37095C11.2571 9.04372 9.34179 16.7776 8.41767 23.9228C7.72272 29.298 7.40226 34.9396 10.0051 39.8564C11.8123 43.2697 14.9051 46.0831 17.085 49.3361C24.6941 60.6529 20.1182 75.109 12.7234 86.6885C9.25609 92.1214 5.19443 97.3289 2.57299 103.073C-0.0484587 108.817 -1.12349 115.331 1.55012 121C4.19951 126.619 10.1839 130.698 16.6062 133.483C29.6482 139.151 44.8329 140.366 59.6095 140.833C92.3188 141.871 125.092 139.755 157.777 137.638C169.872 136.856 182.022 136.067 193.868 133.8C200.445 132.542 207.217 130.675 211.881 126.584C217.8 121.39 219.011 112.909 214.703 106.812C207.48 96.5874 188.433 94.659 183.253 83.5957C180.397 77.505 182.86 70.5201 186.488 64.6493C194.268 52.0526 207.661 40.7694 207.886 26.6803C208.041 17.0049 201.076 7.56624 190.674 3.36112C179.771 -1.04336 164.905 0.0894368 157.266 8.29846C149.411 16.7553 135.194 20.4089 122.897 20.422Z" fill="#8400F0"/>
<path d="M184.923 120.24C184.923 120.24 182.633 118.729 180.364 119.804C180.364 119.804 181.062 121.149 183.935 121.022L184.923 120.24Z" fill="#8400F0"/>
<path d="M185.213 120.32C185.213 120.32 185.91 122.973 184.163 124.779C184.163 124.779 183.112 123.685 184.163 121.006L185.213 120.32Z" fill="#8400F0"/>
<path d="M188.06 117.773C188.06 117.773 187.891 115.517 182.795 116.266C182.795 116.266 182.771 117.721 184.56 118.41C186.348 119.1 187.168 118.518 188.06 117.773Z" fill="#8400F0"/>
<path d="M188.381 117.758C188.381 117.758 190.535 118.449 188.614 123.228C188.614 123.228 187.192 122.912 186.937 121.009C186.682 119.107 187.438 118.451 188.381 117.758Z" fill="#8400F0"/>
<path d="M191.257 114.557C191.257 114.557 191.55 110.844 186.342 111.224C186.342 111.224 185.97 114.578 190.339 115.45L191.257 114.557Z" fill="#8400F0"/>
<path d="M194.699 110.365C194.699 110.365 193.985 106.156 188.78 107.41C188.78 107.41 188.761 111.049 193.849 111.368L194.699 110.365Z" fill="#8400F0"/>
<path d="M197.214 106.032C197.214 106.032 196.018 101.933 190.861 103.159C190.861 103.159 192.088 106.846 196.871 106.788L197.214 106.032Z" fill="#8400F0"/>
<path d="M199.602 101.799C199.602 101.799 198.434 97.545 193.454 98.8175C193.454 98.8175 195.116 102.859 199.273 102.518L199.602 101.799Z" fill="#8400F0"/>
<path d="M201.142 97.7779C201.142 97.7779 200.244 92.576 195.601 93.7274C195.601 93.7274 196.95 98.4599 200.801 98.5362L201.142 97.7779Z" fill="#8400F0"/>
<path d="M202.585 92.9206C202.585 92.9206 201.507 87.6778 196.81 89.1944C196.81 89.1944 198.65 94.1503 202.252 93.6379L202.585 92.9206Z" fill="#8400F0"/>
<path d="M203.472 88.4006C203.472 88.4006 201.76 83.1559 198.129 83.2975C198.129 83.2975 199.878 88.8366 203.168 89.4459L203.472 88.4006Z" fill="#8400F0"/>
<path d="M204.046 83.9888C204.046 83.9888 202.183 77.6764 199.228 78.1627C199.228 78.1627 200.517 82.9883 203.942 84.9725L204.046 83.9888Z" fill="#8400F0"/>
<path d="M204.37 78.7253C204.37 78.7253 202.623 73.4657 199.712 73.2551C199.712 73.2551 200.901 78.4309 204.313 80.0929L204.37 78.7253Z" fill="#8400F0"/>
<path d="M204.722 73.8141C204.722 73.8141 202.544 68.5488 200.624 68.4296C200.624 68.4296 201.57 73.6147 204.536 74.6786L204.722 73.8141Z" fill="#8400F0"/>
<path d="M204.963 69.2457C204.963 69.2457 203.623 63.5277 201.698 63.0526C201.698 63.0526 201.961 67.7309 204.769 69.6742L204.963 69.2457Z" fill="#8400F0"/>
<path d="M205.689 63.2612C205.689 63.2612 204.281 58.7021 202.721 58.0072C202.721 58.0072 203.029 63.3823 205.33 64.3754L205.689 63.2612Z" fill="#8400F0"/>
<path d="M206.291 59.3486L206.574 51.311C206.574 51.311 203.659 57.37 206.081 60.7591L206.291 59.3486Z" fill="#8400F0"/>
<path d="M208.542 51.3539C208.542 51.3539 210.642 45.485 211.15 45.1571C211.15 45.1571 207.033 48.9653 207.435 53.8635L208.542 51.3539Z" fill="#8400F0"/>
<path d="M191.399 114.529C191.399 114.529 195.092 114.047 194.982 119.266C194.982 119.266 191.645 119.81 190.555 115.493L191.399 114.529Z" fill="#8400F0"/>
<path d="M194.874 110.224C194.874 110.224 199.141 110.211 198.787 115.552C198.787 115.552 195.204 116.193 194.022 111.234L194.874 110.224Z" fill="#8400F0"/>
<path d="M197.255 106.376C197.255 106.376 201.128 104.56 203.606 109.249C203.606 109.249 200.029 110.762 196.912 107.135L197.255 106.376Z" fill="#8400F0"/>
<path d="M199.688 101.838C199.688 101.838 203.655 99.9056 205.984 104.485C205.984 104.485 201.851 105.909 199.36 102.562L199.688 101.838Z" fill="#8400F0"/>
<path d="M201.091 97.8915C201.091 97.8915 204.909 94.2453 207.955 97.9325C207.955 97.9325 204.055 100.934 200.916 98.7039L201.091 97.8915Z" fill="#8400F0"/>
<path d="M202.369 92.7958C202.369 92.7958 206.209 89.0695 209.231 92.9672C209.231 92.9672 204.922 96.0284 202.231 93.5783L202.369 92.7958Z" fill="#8400F0"/>
<path d="M203.087 88.2516C203.087 88.2516 206.045 83.5938 209.529 84.6334C209.529 84.6334 206.459 89.5651 203.12 89.3453L203.087 88.2516Z" fill="#8400F0"/>
<path d="M203.958 83.9589C203.958 83.9589 206.94 78.0937 209.76 79.1147C209.76 79.1147 207.61 83.6236 203.882 84.9483L203.958 83.9589Z" fill="#8400F0"/>
<path d="M204.165 78.4198C204.165 78.4198 207.23 73.8029 210.101 74.3674C210.101 74.3674 207.595 79.0495 203.867 79.7557L204.165 78.4198Z" fill="#8400F0"/>
<path d="M204.404 73.7116C204.404 73.7116 206.779 68.5302 208.71 68.4948C208.71 68.4948 207.569 73.639 204.564 74.591L204.404 73.7116Z" fill="#8400F0"/>
<path d="M204.87 69.1339C204.87 69.1339 207.51 63.8873 209.494 63.8761C209.494 63.8761 208.143 68.3626 204.957 69.5941L204.87 69.1339Z" fill="#8400F0"/>
<path d="M205.267 63.5892C205.267 63.5892 207.242 59.2481 208.877 58.7562C208.877 58.7562 207.89 64.0475 205.485 64.7406L205.267 63.5892Z" fill="#8400F0"/>
<path d="M206.526 59.1903L210.94 52.4662C210.94 52.4662 209.809 59.099 205.881 60.4777L206.526 59.1903Z" fill="#8400F0"/>
<path d="M209.555 51.8961C209.555 51.8961 214.685 48.3561 214.871 47.7841C214.871 47.7841 212.263 52.7419 207.418 53.6176L209.555 51.8961Z" fill="#8400F0"/>
<path d="M209.863 50.3031C209.863 50.3031 215.752 44.641 217.256 44.6466C217.256 44.6466 212.399 44.8683 209.721 50.0012L209.863 50.3031Z" fill="#8400F0"/>
<path d="M205.324 64.4294L205.538 64.4574C206.645 55.7956 208.259 50.6701 210.081 50.0422L210.01 49.8373C208.078 50.508 206.453 55.5553 205.324 64.4294Z" fill="#8400F0"/>
<path d="M203.696 85.1439L204.02 85.17C204.089 84.3614 204.141 83.5342 204.177 82.7088C204.486 75.5394 204.965 68.955 205.594 64.0196L205.408 63.7867C204.776 68.7333 204.162 75.5152 203.852 82.6957C203.817 83.5155 203.765 84.339 203.696 85.1439Z" fill="#8400F0"/>
<path d="M178.879 124.372C178.935 124.348 184.641 121.799 190.564 115.722C194.035 112.162 196.918 108.075 199.107 103.611C201.846 98.035 203.515 91.1823 204.074 84.5253L203.737 84.6837C202.479 99.6261 195.677 109.836 190.268 115.398C184.403 121.421 178.76 123.944 178.704 123.968L178.879 124.372Z" fill="#8400F0"/>
<path d="M193.655 15.8796H14.6295C14.2065 15.8796 13.8009 16.0476 13.5018 16.3467C13.2027 16.6458 13.0347 17.0514 13.0347 17.4744V22.1211H195.25V17.4744C195.25 17.0514 195.082 16.6458 194.783 16.3467C194.484 16.0476 194.078 15.8796 193.655 15.8796Z" fill="#3F3D56"/>
<path d="M13.0347 22.1211V126.688C13.0347 127.541 13.3735 128.359 13.9766 128.962C14.5796 129.565 15.3976 129.904 16.2505 129.904H192.035C192.887 129.904 193.705 129.565 194.308 128.962C194.912 128.359 195.25 127.541 195.25 126.688V22.1211H13.0347Z" fill="white"/>
<path opacity="0.8" d="M15.9206 19.699C16.3321 19.699 16.6658 19.3654 16.6658 18.9538C16.6658 18.5422 16.3321 18.2085 15.9206 18.2085C15.509 18.2085 15.1753 18.5422 15.1753 18.9538C15.1753 19.3654 15.509 19.699 15.9206 19.699Z" fill="#FA5959"/>
<path opacity="0.8" d="M17.9701 19.699C18.3817 19.699 18.7154 19.3654 18.7154 18.9538C18.7154 18.5422 18.3817 18.2085 17.9701 18.2085C17.5585 18.2085 17.2249 18.5422 17.2249 18.9538C17.2249 19.3654 17.5585 19.699 17.9701 19.699Z" fill="#FED253"/>
<path opacity="0.8" d="M20.0194 19.699C20.431 19.699 20.7647 19.3654 20.7647 18.9538C20.7647 18.5422 20.431 18.2085 20.0194 18.2085C19.6078 18.2085 19.2742 18.5422 19.2742 18.9538C19.2742 19.3654 19.6078 19.699 20.0194 19.699Z" fill="#8CCF4D"/>
<path opacity="0.05" d="M176.416 39.5564H29.9724V103.95H176.416V39.5564Z" fill="black"/>
<path d="M175.298 40.0446H31.0903V103.019H175.298V40.0446Z" fill="#3F3D56"/>
<path d="M70.4026 56.2521C67.5652 56.2521 64.7915 57.0935 62.4323 58.6699C60.0731 60.2463 58.2343 62.4868 57.1484 65.1083C56.0626 67.7297 55.7785 70.6142 56.3321 73.3971C56.8856 76.18 58.252 78.7363 60.2583 80.7426C62.2647 82.749 64.8209 84.1153 67.6038 84.6689C70.3867 85.2225 73.2712 84.9384 75.8927 83.8525C78.5141 82.7667 80.7547 80.9279 82.3311 78.5687C83.9074 76.2094 84.7488 73.4358 84.7488 70.5983C84.7488 68.7144 84.3778 66.8488 83.6568 65.1083C82.9358 63.3677 81.8791 61.7862 80.5469 60.454C79.2148 59.1218 77.6332 58.0651 75.8927 57.3441C74.1521 56.6232 72.2866 56.2521 70.4026 56.2521V56.2521ZM72.9756 70.943V77.736H67.9041V70.943C67.2023 70.4118 66.6851 69.6735 66.4254 68.8325C66.1658 67.9914 66.1769 67.0901 66.4571 66.2557C66.7373 65.4213 67.2724 64.6959 67.9871 64.1821C68.7017 63.6682 69.5597 63.3917 70.4399 63.3917C71.3201 63.3917 72.1781 63.6682 72.8927 64.1821C73.6073 64.6959 74.1425 65.4213 74.4227 66.2557C74.7029 67.0901 74.714 67.9914 74.4543 68.8325C74.1947 69.6735 73.6774 70.4118 72.9756 70.943V70.943Z" fill="#8400F0"/>
<path opacity="0.05" d="M70.4026 56.2521C67.5652 56.2521 64.7915 57.0935 62.4323 58.6699C60.0731 60.2463 58.2343 62.4868 57.1484 65.1083C56.0626 67.7297 55.7785 70.6142 56.3321 73.3971C56.8856 76.18 58.252 78.7363 60.2583 80.7426C62.2647 82.749 64.8209 84.1153 67.6038 84.6689C70.3867 85.2225 73.2712 84.9384 75.8927 83.8525C78.5141 82.7667 80.7547 80.9279 82.3311 78.5687C83.9074 76.2094 84.7488 73.4358 84.7488 70.5983C84.7488 68.7144 84.3778 66.8488 83.6568 65.1083C82.9358 63.3677 81.8791 61.7862 80.5469 60.454C79.2148 59.1218 77.6332 58.0651 75.8927 57.3441C74.1521 56.6232 72.2866 56.2521 70.4026 56.2521ZM72.9756 70.943V77.736H67.9041V70.943C67.2023 70.4118 66.6851 69.6735 66.4254 68.8325C66.1658 67.9914 66.1769 67.0901 66.4571 66.2557C66.7373 65.4213 67.2724 64.6959 67.9871 64.1821C68.7017 63.6682 69.5597 63.3917 70.4399 63.3917C71.3201 63.3917 72.1781 63.6682 72.8927 64.1821C73.6073 64.6959 74.1425 65.4213 74.4227 66.2557C74.7029 67.0901 74.714 67.9914 74.4543 68.8325C74.1947 69.6735 73.6774 70.4118 72.9756 70.943Z" fill="black"/>
<path d="M70.4027 52.1532C66.7546 52.1532 63.1884 53.235 60.1551 55.2617C57.1218 57.2885 54.7577 60.1692 53.3616 63.5397C51.9655 66.9101 51.6002 70.6188 52.3119 74.1968C53.0237 77.7748 54.7804 81.0614 57.36 83.641C59.9396 86.2206 63.2262 87.9773 66.8042 88.689C70.3822 89.4007 74.0909 89.0355 77.4613 87.6394C80.8317 86.2433 83.7125 83.8792 85.7393 80.8459C87.766 77.8126 88.8478 74.2464 88.8478 70.5983C88.8478 65.7063 86.9045 61.0148 83.4454 57.5556C79.9862 54.0965 75.2946 52.1532 70.4027 52.1532V52.1532ZM73.7098 71.0417V79.7743H67.1887V71.0417C66.2861 70.3586 65.6207 69.4092 65.2867 68.3276C64.9527 67.246 64.9668 66.0868 65.3271 65.0136C65.6874 63.9404 66.3757 63.0075 67.2947 62.3466C68.2138 61.6857 69.3172 61.3302 70.4493 61.3302C71.5813 61.3302 72.6847 61.6857 73.6038 62.3466C74.5228 63.0075 75.2111 63.9404 75.5714 65.0136C75.9317 66.0868 75.9458 67.246 75.6118 68.3276C75.2778 69.4092 74.6124 70.3586 73.7098 71.0417V71.0417Z" fill="#8400F0"/>
<path d="M156.107 68.1781H96.4868V74.5128H156.107V68.1781Z" fill="white"/>
<path d="M156.107 79.7296H143.252V86.0643H156.107V79.7296Z" fill="#8400F0"/>
<path d="M102.356 71.2504H101.277L102.236 70.2927C102.254 70.275 102.263 70.2513 102.263 70.2266C102.263 70.2019 102.254 70.1782 102.236 70.1605C102.228 70.1517 102.217 70.1448 102.206 70.1401C102.195 70.1353 102.183 70.1329 102.17 70.1329C102.158 70.1329 102.146 70.1353 102.134 70.1401C102.123 70.1448 102.113 70.1517 102.104 70.1605L101.145 71.12V70.0394C101.145 70.0146 101.135 69.991 101.117 69.9735C101.1 69.956 101.076 69.9462 101.051 69.9462C101.027 69.9467 101.003 69.9566 100.986 69.974C100.969 69.9914 100.959 70.0148 100.958 70.0394V71.12L100.001 70.1549C99.9919 70.1461 99.9816 70.1392 99.9703 70.1345C99.9589 70.1298 99.9467 70.1273 99.9344 70.1273C99.9221 70.1273 99.91 70.1298 99.8986 70.1345C99.8873 70.1392 99.877 70.1461 99.8683 70.1549C99.8511 70.1726 99.8415 70.1963 99.8415 70.221C99.8415 70.2457 99.8511 70.2694 99.8683 70.2872L100.828 71.2448H99.7472C99.7227 71.2453 99.6992 71.2553 99.6819 71.2726C99.6645 71.29 99.6545 71.3134 99.6541 71.338C99.6541 71.3627 99.6639 71.3864 99.6813 71.4038C99.6988 71.4213 99.7225 71.4311 99.7472 71.4311H100.828L99.8683 72.3906C99.8511 72.4084 99.8415 72.4321 99.8415 72.4568C99.8415 72.4815 99.8511 72.5052 99.8683 72.5229C99.8863 72.5397 99.9099 72.549 99.9344 72.549C99.959 72.549 99.9826 72.5397 100.001 72.5229L100.958 71.5634V72.6422C100.958 72.6669 100.968 72.6906 100.986 72.708C101.003 72.7255 101.027 72.7353 101.051 72.7353C101.076 72.7353 101.1 72.7255 101.117 72.708C101.135 72.6906 101.145 72.6669 101.145 72.6422V71.5634L102.104 72.5229C102.122 72.5397 102.146 72.549 102.17 72.549C102.195 72.549 102.218 72.5397 102.236 72.5229C102.254 72.5052 102.263 72.4815 102.263 72.4568C102.263 72.4321 102.254 72.4084 102.236 72.3906L101.277 71.4311H102.356C102.38 71.4311 102.404 71.4213 102.421 71.4038C102.439 71.3864 102.449 71.3627 102.449 71.338C102.447 71.3142 102.437 71.292 102.42 71.2757C102.402 71.2594 102.379 71.2504 102.356 71.2504Z" fill="#8400F0"/>
<path d="M106.268 71.2504H105.189L106.149 70.2927C106.166 70.275 106.176 70.2513 106.176 70.2266C106.176 70.2019 106.166 70.1782 106.149 70.1605C106.14 70.1517 106.13 70.1448 106.119 70.1401C106.107 70.1353 106.095 70.1329 106.083 70.1329C106.071 70.1329 106.058 70.1353 106.047 70.1401C106.036 70.1448 106.025 70.1517 106.017 70.1605L105.057 71.12V70.0394C105.057 70.0146 105.047 69.991 105.03 69.9735C105.012 69.956 104.989 69.9462 104.964 69.9462C104.939 69.9467 104.916 69.9566 104.899 69.974C104.881 69.9914 104.871 70.0148 104.871 70.0394V71.12L103.913 70.1549C103.905 70.1461 103.894 70.1392 103.883 70.1345C103.872 70.1298 103.859 70.1273 103.847 70.1273C103.835 70.1273 103.823 70.1298 103.811 70.1345C103.8 70.1392 103.79 70.1461 103.781 70.1549C103.764 70.1726 103.754 70.1963 103.754 70.221C103.754 70.2457 103.764 70.2694 103.781 70.2872L104.74 71.2448H103.66C103.635 71.2453 103.612 71.2553 103.594 71.2726C103.577 71.29 103.567 71.3134 103.567 71.338C103.567 71.3627 103.576 71.3864 103.594 71.4038C103.611 71.4213 103.635 71.4311 103.66 71.4311H104.74L103.781 72.3906C103.764 72.4084 103.754 72.4321 103.754 72.4568C103.754 72.4815 103.764 72.5052 103.781 72.5229C103.799 72.5397 103.822 72.549 103.847 72.549C103.872 72.549 103.895 72.5397 103.913 72.5229L104.871 71.5634V72.6422C104.871 72.6669 104.881 72.6906 104.898 72.708C104.916 72.7255 104.939 72.7353 104.964 72.7353C104.989 72.7353 105.012 72.7255 105.03 72.708C105.047 72.6906 105.057 72.6669 105.057 72.6422V71.5634L106.017 72.5229C106.035 72.5397 106.058 72.549 106.083 72.549C106.107 72.549 106.131 72.5397 106.149 72.5229C106.166 72.5052 106.176 72.4815 106.176 72.4568C106.176 72.4321 106.166 72.4084 106.149 72.3906L105.189 71.4311H106.268C106.293 71.4311 106.317 71.4213 106.334 71.4038C106.352 71.3864 106.361 71.3627 106.361 71.338C106.36 71.3142 106.349 71.292 106.332 71.2757C106.315 71.2594 106.292 71.2504 106.268 71.2504Z" fill="#8400F0"/>
<path d="M110.181 71.2504H109.102L110.062 70.2927C110.079 70.275 110.088 70.2513 110.088 70.2266C110.088 70.2019 110.079 70.1782 110.062 70.1605C110.053 70.1517 110.043 70.1448 110.031 70.1401C110.02 70.1353 110.008 70.1329 109.995 70.1329C109.983 70.1329 109.971 70.1353 109.96 70.1401C109.948 70.1448 109.938 70.1517 109.929 70.1605L108.97 71.12V70.0394C108.97 70.0146 108.96 69.991 108.942 69.9735C108.925 69.956 108.901 69.9462 108.877 69.9462C108.852 69.9467 108.829 69.9566 108.811 69.974C108.794 69.9914 108.784 70.0148 108.783 70.0394V71.12L107.826 70.1549C107.817 70.1461 107.807 70.1392 107.795 70.1345C107.784 70.1298 107.772 70.1273 107.76 70.1273C107.747 70.1273 107.735 70.1298 107.724 70.1345C107.712 70.1392 107.702 70.1461 107.694 70.1549C107.676 70.1726 107.667 70.1963 107.667 70.221C107.667 70.2457 107.676 70.2694 107.694 70.2872L108.653 71.2448H107.572C107.548 71.2453 107.524 71.2553 107.507 71.2726C107.49 71.29 107.48 71.3134 107.479 71.338C107.479 71.3627 107.489 71.3864 107.507 71.4038C107.524 71.4213 107.548 71.4311 107.572 71.4311H108.653L107.694 72.3906C107.676 72.4084 107.667 72.4321 107.667 72.4568C107.667 72.4815 107.676 72.5052 107.694 72.5229C107.711 72.5397 107.735 72.549 107.76 72.549C107.784 72.549 107.808 72.5397 107.826 72.5229L108.783 71.5634V72.6422C108.783 72.6669 108.793 72.6906 108.811 72.708C108.828 72.7255 108.852 72.7353 108.877 72.7353C108.901 72.7353 108.925 72.7255 108.942 72.708C108.96 72.6906 108.97 72.6669 108.97 72.6422V71.5634L109.929 72.5229C109.947 72.5397 109.971 72.549 109.995 72.549C110.02 72.549 110.044 72.5397 110.062 72.5229C110.079 72.5052 110.088 72.4815 110.088 72.4568C110.088 72.4321 110.079 72.4084 110.062 72.3906L109.102 71.4311H110.181C110.206 71.4311 110.229 71.4213 110.247 71.4038C110.264 71.3864 110.274 71.3627 110.274 71.338C110.273 71.3142 110.262 71.292 110.245 71.2757C110.227 71.2594 110.205 71.2504 110.181 71.2504Z" fill="#8400F0"/>
<path d="M114.093 71.2504H113.015L113.974 70.2927C113.991 70.275 114.001 70.2513 114.001 70.2266C114.001 70.2019 113.991 70.1782 113.974 70.1605C113.966 70.1517 113.955 70.1448 113.944 70.1401C113.932 70.1353 113.92 70.1329 113.908 70.1329C113.896 70.1329 113.884 70.1353 113.872 70.1401C113.861 70.1448 113.851 70.1517 113.842 70.1605L112.882 71.12V70.0394C112.882 70.0146 112.873 69.991 112.855 69.9735C112.838 69.956 112.814 69.9462 112.789 69.9462C112.765 69.9467 112.741 69.9566 112.724 69.974C112.706 69.9914 112.697 70.0148 112.696 70.0394V71.12L111.738 70.1549C111.73 70.1461 111.719 70.1392 111.708 70.1345C111.697 70.1298 111.685 70.1273 111.672 70.1273C111.66 70.1273 111.648 70.1298 111.636 70.1345C111.625 70.1392 111.615 70.1461 111.606 70.1549C111.589 70.1726 111.579 70.1963 111.579 70.221C111.579 70.2457 111.589 70.2694 111.606 70.2872L112.566 71.2448H111.485C111.46 71.2453 111.437 71.2553 111.42 71.2726C111.402 71.29 111.392 71.3134 111.392 71.338C111.392 71.3627 111.402 71.3864 111.419 71.4038C111.437 71.4213 111.46 71.4311 111.485 71.4311H112.566L111.606 72.3906C111.589 72.4084 111.579 72.4321 111.579 72.4568C111.579 72.4815 111.589 72.5052 111.606 72.5229C111.624 72.5397 111.648 72.549 111.672 72.549C111.697 72.549 111.72 72.5397 111.738 72.5229L112.696 71.5634V72.6422C112.696 72.6669 112.706 72.6906 112.723 72.708C112.741 72.7255 112.765 72.7353 112.789 72.7353C112.814 72.7353 112.838 72.7255 112.855 72.708C112.873 72.6906 112.882 72.6669 112.882 72.6422V71.5634L113.842 72.5229C113.86 72.5397 113.883 72.549 113.908 72.549C113.933 72.549 113.956 72.5397 113.974 72.5229C113.991 72.5052 114.001 72.4815 114.001 72.4568C114.001 72.4321 113.991 72.4084 113.974 72.3906L113.015 71.4311H114.093C114.118 71.4311 114.142 71.4213 114.159 71.4038C114.177 71.3864 114.187 71.3627 114.187 71.338C114.185 71.3142 114.175 71.292 114.157 71.2757C114.14 71.2594 114.117 71.2504 114.093 71.2504Z" fill="#8400F0"/>
<path d="M118.006 71.2504H116.927L117.887 70.2927C117.904 70.275 117.914 70.2513 117.914 70.2266C117.914 70.2019 117.904 70.1782 117.887 70.1605C117.878 70.1517 117.868 70.1448 117.856 70.1401C117.845 70.1353 117.833 70.1329 117.821 70.1329C117.808 70.1329 117.796 70.1353 117.785 70.1401C117.773 70.1448 117.763 70.1517 117.754 70.1605L116.795 71.12V70.0394C116.795 70.0146 116.785 69.991 116.768 69.9735C116.75 69.956 116.727 69.9462 116.702 69.9462C116.677 69.9467 116.654 69.9566 116.636 69.974C116.619 69.9914 116.609 70.0148 116.609 70.0394V71.12L115.651 70.1549C115.642 70.1461 115.632 70.1392 115.621 70.1345C115.609 70.1298 115.597 70.1273 115.585 70.1273C115.573 70.1273 115.56 70.1298 115.549 70.1345C115.538 70.1392 115.527 70.1461 115.519 70.1549C115.502 70.1726 115.492 70.1963 115.492 70.221C115.492 70.2457 115.502 70.2694 115.519 70.2872L116.478 71.2448H115.398C115.373 71.2453 115.35 71.2553 115.332 71.2726C115.315 71.29 115.305 71.3134 115.304 71.338C115.304 71.3627 115.314 71.3864 115.332 71.4038C115.349 71.4213 115.373 71.4311 115.398 71.4311H116.478L115.519 72.3906C115.502 72.4084 115.492 72.4321 115.492 72.4568C115.492 72.4815 115.502 72.5052 115.519 72.5229C115.537 72.5397 115.56 72.549 115.585 72.549C115.609 72.549 115.633 72.5397 115.651 72.5229L116.609 71.5634V72.6422C116.609 72.6669 116.618 72.6906 116.636 72.708C116.653 72.7255 116.677 72.7353 116.702 72.7353C116.727 72.7353 116.75 72.7255 116.768 72.708C116.785 72.6906 116.795 72.6669 116.795 72.6422V71.5634L117.754 72.5229C117.772 72.5397 117.796 72.549 117.821 72.549C117.845 72.549 117.869 72.5397 117.887 72.5229C117.904 72.5052 117.914 72.4815 117.914 72.4568C117.914 72.4321 117.904 72.4084 117.887 72.3906L116.927 71.4311H118.006C118.031 71.4311 118.054 71.4213 118.072 71.4038C118.089 71.3864 118.099 71.3627 118.099 71.338C118.098 71.3142 118.087 71.292 118.07 71.2757C118.053 71.2594 118.03 71.2504 118.006 71.2504Z" fill="#8400F0"/>
<path d="M121.919 71.2504H120.84L121.799 70.2927C121.817 70.275 121.826 70.2513 121.826 70.2266C121.826 70.2019 121.817 70.1782 121.799 70.1605C121.791 70.1517 121.78 70.1448 121.769 70.1401C121.758 70.1353 121.746 70.1329 121.733 70.1329C121.721 70.1329 121.709 70.1353 121.697 70.1401C121.686 70.1448 121.676 70.1517 121.667 70.1605L120.708 71.12V70.0394C120.708 70.0146 120.698 69.991 120.68 69.9735C120.663 69.956 120.639 69.9462 120.614 69.9462C120.59 69.9467 120.566 69.9566 120.549 69.974C120.532 69.9914 120.522 70.0148 120.521 70.0394V71.12L119.564 70.1549C119.555 70.1461 119.545 70.1392 119.533 70.1345C119.522 70.1298 119.51 70.1273 119.497 70.1273C119.485 70.1273 119.473 70.1298 119.462 70.1345C119.45 70.1392 119.44 70.1461 119.431 70.1549C119.414 70.1726 119.404 70.1963 119.404 70.221C119.404 70.2457 119.414 70.2694 119.431 70.2872L120.391 71.2448H119.31C119.286 71.2453 119.262 71.2553 119.245 71.2726C119.227 71.29 119.218 71.3134 119.217 71.338C119.217 71.3627 119.227 71.3864 119.244 71.4038C119.262 71.4213 119.285 71.4311 119.31 71.4311H120.391L119.431 72.3906C119.414 72.4084 119.404 72.4321 119.404 72.4568C119.404 72.4815 119.414 72.5052 119.431 72.5229C119.449 72.5397 119.473 72.549 119.497 72.549C119.522 72.549 119.546 72.5397 119.564 72.5229L120.521 71.5634V72.6422C120.521 72.6669 120.531 72.6906 120.549 72.708C120.566 72.7255 120.59 72.7353 120.614 72.7353C120.639 72.7353 120.663 72.7255 120.68 72.708C120.698 72.6906 120.708 72.6669 120.708 72.6422V71.5634L121.667 72.5229C121.685 72.5397 121.709 72.549 121.733 72.549C121.758 72.549 121.781 72.5397 121.799 72.5229C121.817 72.5052 121.826 72.4815 121.826 72.4568C121.826 72.4321 121.817 72.4084 121.799 72.3906L120.84 71.4311H121.919C121.943 71.4311 121.967 71.4213 121.984 71.4038C122.002 71.3864 122.012 71.3627 122.012 71.338C122.01 71.3142 122 71.292 121.983 71.2757C121.965 71.2594 121.942 71.2504 121.919 71.2504Z" fill="#8400F0"/>
<path d="M125.831 71.2504H124.752L125.712 70.2927C125.729 70.275 125.739 70.2513 125.739 70.2266C125.739 70.2019 125.729 70.1782 125.712 70.1605C125.703 70.1517 125.693 70.1448 125.682 70.1401C125.67 70.1353 125.658 70.1329 125.646 70.1329C125.634 70.1329 125.621 70.1353 125.61 70.1401C125.599 70.1448 125.588 70.1517 125.58 70.1605L124.62 71.12V70.0394C124.62 70.0146 124.61 69.991 124.593 69.9735C124.575 69.956 124.552 69.9462 124.527 69.9462C124.502 69.9467 124.479 69.9566 124.462 69.974C124.444 69.9914 124.434 70.0148 124.434 70.0394V71.12L123.476 70.1549C123.468 70.1461 123.457 70.1392 123.446 70.1345C123.435 70.1298 123.422 70.1273 123.41 70.1273C123.398 70.1273 123.386 70.1298 123.374 70.1345C123.363 70.1392 123.353 70.1461 123.344 70.1549C123.327 70.1726 123.317 70.1963 123.317 70.221C123.317 70.2457 123.327 70.2694 123.344 70.2872L124.303 71.2448H123.223C123.198 71.2453 123.175 71.2553 123.157 71.2726C123.14 71.29 123.13 71.3134 123.13 71.338C123.13 71.3627 123.139 71.3864 123.157 71.4038C123.174 71.4213 123.198 71.4311 123.223 71.4311H124.303L123.344 72.3906C123.327 72.4084 123.317 72.4321 123.317 72.4568C123.317 72.4815 123.327 72.5052 123.344 72.5229C123.362 72.5397 123.385 72.549 123.41 72.549C123.435 72.549 123.458 72.5397 123.476 72.5229L124.434 71.5634V72.6422C124.434 72.6669 124.444 72.6906 124.461 72.708C124.479 72.7255 124.502 72.7353 124.527 72.7353C124.552 72.7353 124.575 72.7255 124.593 72.708C124.61 72.6906 124.62 72.6669 124.62 72.6422V71.5634L125.58 72.5229C125.598 72.5397 125.621 72.549 125.646 72.549C125.67 72.549 125.694 72.5397 125.712 72.5229C125.729 72.5052 125.739 72.4815 125.739 72.4568C125.739 72.4321 125.729 72.4084 125.712 72.3906L124.752 71.4311H125.831C125.856 71.4311 125.88 71.4213 125.897 71.4038C125.915 71.3864 125.924 71.3627 125.924 71.338C125.923 71.3142 125.912 71.292 125.895 71.2757C125.878 71.2594 125.855 71.2504 125.831 71.2504Z" fill="#8400F0"/>
<path d="M129.744 71.2504H128.665L129.625 70.2927C129.642 70.275 129.651 70.2513 129.651 70.2266C129.651 70.2019 129.642 70.1782 129.625 70.1605C129.616 70.1517 129.606 70.1448 129.594 70.1401C129.583 70.1353 129.571 70.1329 129.558 70.1329C129.546 70.1329 129.534 70.1353 129.523 70.1401C129.511 70.1448 129.501 70.1517 129.492 70.1605L128.533 71.12V70.0394C128.533 70.0146 128.523 69.991 128.505 69.9735C128.488 69.956 128.464 69.9462 128.44 69.9462C128.415 69.9467 128.392 69.9566 128.374 69.974C128.357 69.9914 128.347 70.0148 128.346 70.0394V71.12L127.389 70.1549C127.38 70.1461 127.37 70.1392 127.358 70.1345C127.347 70.1298 127.335 70.1273 127.323 70.1273C127.31 70.1273 127.298 70.1298 127.287 70.1345C127.275 70.1392 127.265 70.1461 127.256 70.1549C127.239 70.1726 127.23 70.1963 127.23 70.221C127.23 70.2457 127.239 70.2694 127.256 70.2872L128.216 71.2448H127.135C127.111 71.2453 127.087 71.2553 127.07 71.2726C127.053 71.29 127.043 71.3134 127.042 71.338C127.042 71.3627 127.052 71.3864 127.07 71.4038C127.087 71.4213 127.111 71.4311 127.135 71.4311H128.216L127.256 72.3906C127.239 72.4084 127.23 72.4321 127.23 72.4568C127.23 72.4815 127.239 72.5052 127.256 72.5229C127.274 72.5397 127.298 72.549 127.323 72.549C127.347 72.549 127.371 72.5397 127.389 72.5229L128.346 71.5634V72.6422C128.346 72.6669 128.356 72.6906 128.374 72.708C128.391 72.7255 128.415 72.7353 128.44 72.7353C128.464 72.7353 128.488 72.7255 128.505 72.708C128.523 72.6906 128.533 72.6669 128.533 72.6422V71.5634L129.492 72.5229C129.51 72.5397 129.534 72.549 129.558 72.549C129.583 72.549 129.607 72.5397 129.625 72.5229C129.642 72.5052 129.651 72.4815 129.651 72.4568C129.651 72.4321 129.642 72.4084 129.625 72.3906L128.665 71.4311H129.744C129.769 71.4311 129.792 71.4213 129.81 71.4038C129.827 71.3864 129.837 71.3627 129.837 71.338C129.836 71.3142 129.825 71.292 129.808 71.2757C129.79 71.2594 129.768 71.2504 129.744 71.2504Z" fill="#8400F0"/>
<path d="M133.656 71.2504H132.578L133.537 70.2927C133.554 70.275 133.564 70.2513 133.564 70.2266C133.564 70.2019 133.554 70.1782 133.537 70.1605C133.528 70.1517 133.518 70.1448 133.507 70.1401C133.495 70.1353 133.483 70.1329 133.471 70.1329C133.459 70.1329 133.447 70.1353 133.435 70.1401C133.424 70.1448 133.414 70.1517 133.405 70.1605L132.445 71.12V70.0394C132.445 70.0146 132.436 69.991 132.418 69.9735C132.401 69.956 132.377 69.9462 132.352 69.9462C132.328 69.9467 132.304 69.9566 132.287 69.974C132.269 69.9914 132.26 70.0148 132.259 70.0394V71.12L131.301 70.1549C131.293 70.1461 131.282 70.1392 131.271 70.1345C131.26 70.1298 131.248 70.1273 131.235 70.1273C131.223 70.1273 131.211 70.1298 131.199 70.1345C131.188 70.1392 131.178 70.1461 131.169 70.1549C131.152 70.1726 131.142 70.1963 131.142 70.221C131.142 70.2457 131.152 70.2694 131.169 70.2872L132.129 71.2448H131.048C131.023 71.2453 131 71.2553 130.983 71.2726C130.965 71.29 130.955 71.3134 130.955 71.338C130.955 71.3627 130.965 71.3864 130.982 71.4038C131 71.4213 131.023 71.4311 131.048 71.4311H132.129L131.169 72.3906C131.152 72.4084 131.142 72.4321 131.142 72.4568C131.142 72.4815 131.152 72.5052 131.169 72.5229C131.187 72.5397 131.211 72.549 131.235 72.549C131.26 72.549 131.283 72.5397 131.301 72.5229L132.259 71.5634V72.6422C132.259 72.6669 132.269 72.6906 132.286 72.708C132.304 72.7255 132.327 72.7353 132.352 72.7353C132.377 72.7353 132.401 72.7255 132.418 72.708C132.436 72.6906 132.445 72.6669 132.445 72.6422V71.5634L133.405 72.5229C133.423 72.5397 133.446 72.549 133.471 72.549C133.496 72.549 133.519 72.5397 133.537 72.5229C133.554 72.5052 133.564 72.4815 133.564 72.4568C133.564 72.4321 133.554 72.4084 133.537 72.3906L132.578 71.4311H133.656C133.681 71.4311 133.705 71.4213 133.722 71.4038C133.74 71.3864 133.75 71.3627 133.75 71.338C133.748 71.3142 133.738 71.292 133.72 71.2757C133.703 71.2594 133.68 71.2504 133.656 71.2504Z" fill="#8400F0"/>
<path d="M137.569 71.2504H136.49L137.45 70.2927C137.467 70.275 137.477 70.2513 137.477 70.2266C137.477 70.2019 137.467 70.1782 137.45 70.1605C137.441 70.1517 137.431 70.1448 137.419 70.1401C137.408 70.1353 137.396 70.1329 137.384 70.1329C137.371 70.1329 137.359 70.1353 137.348 70.1401C137.336 70.1448 137.326 70.1517 137.317 70.1605L136.358 71.12V70.0394C136.358 70.0146 136.348 69.991 136.331 69.9735C136.313 69.956 136.29 69.9462 136.265 69.9462C136.24 69.9467 136.217 69.9566 136.199 69.974C136.182 69.9914 136.172 70.0148 136.172 70.0394V71.12L135.214 70.1549C135.205 70.1461 135.195 70.1392 135.184 70.1345C135.172 70.1298 135.16 70.1273 135.148 70.1273C135.136 70.1273 135.123 70.1298 135.112 70.1345C135.101 70.1392 135.09 70.1461 135.082 70.1549C135.064 70.1726 135.055 70.1963 135.055 70.221C135.055 70.2457 135.064 70.2694 135.082 70.2872L136.041 71.2448H134.961C134.936 71.2453 134.913 71.2553 134.895 71.2726C134.878 71.29 134.868 71.3134 134.867 71.338C134.867 71.3627 134.877 71.3864 134.895 71.4038C134.912 71.4213 134.936 71.4311 134.961 71.4311H136.041L135.082 72.3906C135.064 72.4084 135.055 72.4321 135.055 72.4568C135.055 72.4815 135.064 72.5052 135.082 72.5229C135.1 72.5397 135.123 72.549 135.148 72.549C135.172 72.549 135.196 72.5397 135.214 72.5229L136.172 71.5634V72.6422C136.172 72.6669 136.181 72.6906 136.199 72.708C136.216 72.7255 136.24 72.7353 136.265 72.7353C136.29 72.7353 136.313 72.7255 136.331 72.708C136.348 72.6906 136.358 72.6669 136.358 72.6422V71.5634L137.317 72.5229C137.335 72.5397 137.359 72.549 137.384 72.549C137.408 72.549 137.432 72.5397 137.45 72.5229C137.467 72.5052 137.477 72.4815 137.477 72.4568C137.477 72.4321 137.467 72.4084 137.45 72.3906L136.49 71.4311H137.569C137.594 71.4311 137.617 71.4213 137.635 71.4038C137.652 71.3864 137.662 71.3627 137.662 71.338C137.661 71.3142 137.65 71.292 137.633 71.2757C137.616 71.2594 137.593 71.2504 137.569 71.2504Z" fill="#8400F0"/>
<path d="M141.482 71.2504H140.403L141.362 70.2927C141.379 70.275 141.389 70.2513 141.389 70.2266C141.389 70.2019 141.379 70.1782 141.362 70.1605C141.354 70.1517 141.343 70.1448 141.332 70.1401C141.321 70.1353 141.308 70.1329 141.296 70.1329C141.284 70.1329 141.272 70.1353 141.26 70.1401C141.249 70.1448 141.239 70.1517 141.23 70.1605L140.271 71.12V70.0394C140.271 70.0146 140.261 69.991 140.243 69.9735C140.226 69.956 140.202 69.9462 140.177 69.9462C140.153 69.9467 140.129 69.9566 140.112 69.974C140.095 69.9914 140.085 70.0148 140.084 70.0394V71.12L139.127 70.1549C139.118 70.1461 139.108 70.1392 139.096 70.1345C139.085 70.1298 139.073 70.1273 139.06 70.1273C139.048 70.1273 139.036 70.1298 139.025 70.1345C139.013 70.1392 139.003 70.1461 138.994 70.1549C138.977 70.1726 138.967 70.1963 138.967 70.221C138.967 70.2457 138.977 70.2694 138.994 70.2872L139.954 71.2448H138.873C138.849 71.2453 138.825 71.2553 138.808 71.2726C138.79 71.29 138.781 71.3134 138.78 71.338C138.78 71.3627 138.79 71.3864 138.807 71.4038C138.825 71.4213 138.848 71.4311 138.873 71.4311H139.954L138.994 72.3906C138.977 72.4084 138.967 72.4321 138.967 72.4568C138.967 72.4815 138.977 72.5052 138.994 72.5229C139.012 72.5397 139.036 72.549 139.06 72.549C139.085 72.549 139.109 72.5397 139.127 72.5229L140.084 71.5634V72.6422C140.084 72.6669 140.094 72.6906 140.111 72.708C140.129 72.7255 140.153 72.7353 140.177 72.7353C140.202 72.7353 140.226 72.7255 140.243 72.708C140.261 72.6906 140.271 72.6669 140.271 72.6422V71.5634L141.23 72.5229C141.248 72.5397 141.272 72.549 141.296 72.549C141.321 72.549 141.344 72.5397 141.362 72.5229C141.379 72.5052 141.389 72.4815 141.389 72.4568C141.389 72.4321 141.379 72.4084 141.362 72.3906L140.403 71.4311H141.482C141.506 71.4311 141.53 71.4213 141.547 71.4038C141.565 71.3864 141.575 71.3627 141.575 71.338C141.573 71.3142 141.563 71.292 141.546 71.2757C141.528 71.2594 141.505 71.2504 141.482 71.2504Z" fill="#8400F0"/>
<path d="M171.477 93.9156C171.471 93.6904 171.443 93.4662 171.393 93.2467C171.225 92.617 170.847 91.8549 170.225 91.6649C169.582 91.4682 168.962 91.206 168.373 90.8824C168.261 88.8851 168.719 86.8412 168.22 84.9054C168.034 84.1974 167.726 83.5192 167.644 82.7944C167.542 81.8927 167.788 80.9313 167.428 80.1003C167.145 79.4445 166.523 78.9824 165.854 78.7402C165.185 78.498 164.464 78.4328 163.754 78.3676C162.86 78.2949 159.964 77.9521 158.954 78.7514C158.885 78.8055 158.822 78.8681 158.768 78.9377C158.746 78.9685 158.726 79.0008 158.708 79.0346L158.699 79.0495C158.679 79.0884 158.662 79.1289 158.649 79.1706C158.635 79.2163 158.624 79.263 158.617 79.3104C158.617 79.3253 158.617 79.3402 158.617 79.3551C158.617 79.37 158.617 79.4203 158.617 79.4538V79.5041C158.617 79.5377 158.617 79.5712 158.617 79.6066C158.617 79.642 158.617 79.6327 158.617 79.6457C158.63 79.8134 158.654 79.9811 158.654 80.1469C158.656 80.2295 158.649 80.312 158.632 80.3928C158.57 80.6126 158.465 80.8178 158.323 80.9965L158.289 81.045C158.269 81.0748 158.248 81.1027 158.23 81.1325C158.211 81.1623 158.196 81.1847 158.181 81.2108C158.166 81.2369 158.151 81.2536 158.138 81.2778C158.12 81.3085 158.104 81.3403 158.09 81.3729C158.09 81.3915 158.069 81.4083 158.062 81.4269C158.039 81.4773 158.02 81.5297 158.006 81.5834C157.962 81.7453 157.959 81.9153 157.995 82.079C158.045 82.288 158.132 82.4866 158.25 82.6659C158.297 82.7423 158.347 82.8168 158.399 82.8913L158.53 83.0683C158.505 83.2412 158.492 83.4154 158.491 83.59C158.491 84.1734 158.623 84.7492 158.878 85.274C159.133 85.7988 159.504 86.2588 159.962 86.6195C160.036 87.4063 160.028 88.1987 159.938 88.9838C159.921 89.1478 159.901 89.3136 159.879 89.4776C159.856 89.6415 159.839 89.7496 159.817 89.8856C159.544 89.9246 159.267 89.9036 159.003 89.8241C158.881 89.7698 158.757 89.7219 158.63 89.6806C158.088 89.5446 157.535 90.0849 156.998 89.921C156.998 89.9471 156.983 89.9713 156.974 89.9955C156.862 89.9259 156.733 89.8879 156.601 89.8856C156.283 89.8707 156.024 89.6396 155.793 89.4216L155.083 88.7528C155.037 88.7118 154.995 88.6656 154.96 88.6149C154.922 88.5425 154.893 88.4655 154.874 88.3857C154.755 88.0001 154.466 87.6927 154.187 87.4001C154.134 87.3334 154.063 87.2825 153.984 87.253C153.953 87.2483 153.921 87.2483 153.89 87.253C153.871 87.2269 153.851 87.202 153.829 87.1784C153.781 87.1231 153.729 87.0708 153.674 87.0219C153.335 86.7089 153.302 86.4406 153.007 86.0903C152.751 85.7563 152.518 85.4045 152.31 85.0377C152.286 84.842 152.253 84.6408 152.212 84.4377C152.118 83.9728 151.981 83.5175 151.804 83.0776L151.431 82.2523L151.388 82.2951C151.118 81.8927 150.829 81.6728 150.57 81.725C150.136 81.8144 149.922 82.6566 149.991 83.7577L150.14 84.8756C150.14 84.9035 150.153 84.9315 150.16 84.9594C150.134 85.0919 150.12 85.2267 150.119 85.3619C150.119 85.5184 150.265 85.6339 150.341 85.7736C150.463 85.9629 150.528 86.1836 150.527 86.4089C150.518 86.4891 150.494 86.5655 150.49 86.6437C150.5 86.8187 150.561 86.9871 150.665 87.1281L151.597 88.6932L151.783 89.0211L151.794 89.036C151.853 89.1504 151.939 89.2489 152.044 89.3229C152.081 89.7148 152.185 90.0974 152.351 90.4538C152.383 90.5246 152.419 90.5917 152.456 90.6588C152.706 91.0705 153.001 91.4535 153.335 91.8009L153.779 92.2983C154.216 92.7865 154.654 93.2765 155.129 93.7274C155.299 93.9083 155.505 94.0523 155.733 94.1503C155.845 94.195 155.966 94.2094 156.085 94.1921C156.204 94.1747 156.317 94.1263 156.411 94.0516C156.411 94.2826 156.411 94.5136 156.411 94.7447C156.48 94.7489 156.547 94.7716 156.605 94.8103C156.662 94.8489 156.708 94.9023 156.738 94.9648C156.768 95.0272 156.781 95.0966 156.775 95.1656C156.77 95.2347 156.746 95.301 156.706 95.3576C156.314 96.3619 155.919 97.3754 155.327 98.2753C155.745 98.5229 156.133 98.8186 156.482 99.1566C156.709 99.4077 156.91 99.6804 157.084 99.9708C157.101 100.109 157.114 100.245 157.121 100.381C157.259 102.602 156.4 104.806 155.631 106.922C155.409 107.522 155.167 108.15 155.185 108.774C155.039 108.864 154.9 108.964 154.768 109.074C154.921 109.473 154.861 109.829 154.844 110.255C154.839 110.511 154.786 110.764 154.69 111.001C154.609 111.165 154.519 111.325 154.421 111.479C153.939 112.331 153.833 113.343 153.736 114.315C153.678 114.902 153.905 115.619 153.639 116.145C153.179 117.047 152.771 118.008 152.707 119.01C152.705 119.236 152.676 119.46 152.622 119.679C152.564 119.865 152.461 120.024 152.409 120.206C152.355 120.451 152.343 120.703 152.372 120.952C152.407 121.845 152.275 122.737 151.981 123.581C151.748 124.246 151.491 124.957 151.673 125.641C151.224 126.113 150.946 126.723 150.885 127.372C150.88 127.538 150.86 127.703 150.826 127.866C150.769 128.032 150.694 128.191 150.602 128.341C150.227 129.024 150.051 129.799 150.095 130.577C149.536 131.335 149.257 132.27 149.091 133.2C148.925 134.13 148.852 135.076 148.64 135.995C148.357 137.21 147.844 138.437 147.744 139.682C147.14 140.068 146.879 140.815 146.764 141.521C146.648 142.227 146.63 142.968 146.333 143.621C146.181 143.96 145.961 144.263 145.816 144.61C145.714 144.886 145.639 145.171 145.592 145.461C145.503 145.916 145.424 146.423 145.534 146.859C145.376 147.026 145.192 147.166 144.988 147.274C145.018 147.159 145.042 147.043 145.063 146.926C144.582 147.362 143.71 147.209 143.326 147.733C143.211 147.901 143.166 148.108 143.201 148.31C143.236 148.511 143.348 148.691 143.513 148.811C143.633 148.885 143.763 148.94 143.898 148.977C144.83 149.275 145.788 149.575 146.745 149.417C146.858 149.405 146.968 149.37 147.068 149.314C147.192 149.223 147.295 149.104 147.368 148.968C147.511 148.741 147.654 148.513 147.796 148.286C148.139 148.388 148.488 148.47 148.841 148.53C148.877 148.828 148.903 149.126 148.916 149.424C149.102 149.462 149.352 149.473 149.439 149.299C149.466 149.234 149.477 149.163 149.471 149.093C149.471 148.96 149.49 148.785 149.501 148.606H149.538C150.107 148.629 150.672 148.515 151.187 148.273C150.988 146.622 151.645 145.009 152.215 143.447C152.817 141.804 153.333 140.131 153.853 138.458C154.226 137.28 154.638 136.14 155.003 134.961C155.462 133.47 155.924 131.98 156.387 130.489C156.588 129.833 156.791 129.185 157.022 128.533C157.509 127.213 158.086 125.929 158.749 124.689C158.936 124.337 159.122 123.989 159.275 123.623C159.461 123.178 159.593 122.712 159.743 122.252C160.067 121.308 160.458 120.388 160.913 119.498C160.926 119.474 160.935 119.452 160.948 119.429C161.099 120.046 161.25 120.672 161.35 121.293C161.487 122.053 161.497 122.831 161.382 123.595C161.293 124.115 161.123 124.63 161.144 125.157C161.172 125.885 161.561 126.547 161.753 127.249C161.877 127.775 161.947 128.312 161.962 128.851C162.014 129.69 162.468 130.631 162.148 131.408C161.151 133.869 161.634 136.649 161.065 139.233C160.773 140.559 159.877 141.806 159.947 143.162C159.997 144.125 160.082 145.085 160.201 146.043C160.23 146.345 160.308 146.64 160.434 146.916C160.508 147.062 160.593 147.201 160.689 147.334C160.607 147.366 160.538 147.449 160.478 147.626C160.326 148.092 160.478 148.67 160.892 148.931C161.061 149.021 161.242 149.084 161.431 149.117C161.684 149.189 161.946 149.225 162.209 149.225C162.291 149.221 162.373 149.211 162.453 149.195C162.741 149.316 163.036 149.422 163.335 149.512C163.335 149.588 163.35 149.665 163.359 149.741C163.359 149.781 163.368 149.82 163.385 149.857C163.402 149.893 163.426 149.925 163.456 149.952C163.502 149.973 163.554 149.982 163.605 149.978H164.617C164.617 149.894 164.617 149.808 164.617 149.724C164.732 149.736 164.849 149.724 164.96 149.688C165.071 149.652 165.173 149.593 165.259 149.516C165.349 149.402 165.413 149.269 165.446 149.128C165.721 148.193 165.995 147.257 166.267 146.32C166.593 145.285 166.729 144.199 166.668 143.116C166.308 139.682 167.098 136.237 166.841 132.794C166.686 130.724 166.793 128.644 167.158 126.601C167.242 126.139 167.344 125.669 167.381 125.209C167.463 124.341 167.363 123.463 167.424 122.601C167.445 122.299 167.486 121.999 167.523 121.699C167.778 119.837 167.912 117.961 167.924 116.081C167.918 115.459 167.879 114.837 167.808 114.218C168.002 114.169 168.179 114.065 168.317 113.92C168.483 113.704 168.44 113.4 168.438 113.125C168.438 112.465 168.715 111.843 168.939 111.22C169.226 110.362 169.461 109.487 169.643 108.601C169.836 107.886 169.941 107.151 169.956 106.412C169.956 106.337 169.953 106.263 169.945 106.188C170.015 106.139 170.074 106.076 170.117 106.002C170.165 105.893 170.195 105.776 170.206 105.657C170.273 105.182 170.342 104.705 170.409 104.228C170.459 103.887 170.508 103.546 170.556 103.205L171.149 99.0709C171.199 98.7113 171.251 98.3536 171.302 97.9959L171.456 96.9264C171.473 96.7997 171.492 96.673 171.505 96.5538C171.959 95.7936 171.525 94.7801 171.477 93.9156ZM166.534 109.395C166.314 108.873 166.109 108.338 166.161 107.776H166.141C166.19 107.602 166.181 107.418 166.116 107.25C166.059 107.114 165.958 106.999 165.897 106.863C165.83 106.697 165.796 106.52 165.796 106.341C165.75 105.208 165.839 104.073 166.062 102.961C166.087 102.831 166.113 102.698 166.137 102.568C166.215 102.523 166.286 102.467 166.349 102.402C166.447 102.29 166.528 102.165 166.59 102.03C166.8 101.607 166.992 101.176 167.169 100.738C167.227 100.597 167.311 100.433 167.454 100.397C167.424 101.487 167.536 102.6 167.093 103.583C167.008 103.742 166.946 103.911 166.906 104.086C166.865 104.364 166.981 104.645 166.94 104.921C166.919 105.065 166.858 105.197 166.834 105.339C166.815 105.408 166.816 105.481 166.835 105.551C166.854 105.62 166.891 105.683 166.942 105.734C166.966 105.751 166.993 105.765 167.022 105.774C167.011 105.849 167.001 105.925 166.994 105.998C166.979 106.151 166.972 106.294 166.962 106.384C166.919 106.84 166.903 107.297 166.912 107.755C166.912 108.249 166.931 108.742 166.923 109.246C166.93 109.39 166.906 109.534 166.852 109.668C166.815 109.738 166.768 109.801 166.711 109.855C166.657 109.687 166.597 109.54 166.534 109.395Z" fill="url(#paint0_linear)"/>
<path d="M151.826 87.7765C152.395 87.66 152.588 86.2605 152.258 84.6507C151.929 83.0408 151.2 81.8302 150.632 81.9467C150.063 82.0632 149.87 83.4627 150.2 85.0725C150.529 86.6824 151.258 87.893 151.826 87.7765Z" fill="#FBBEBE"/>
<path d="M160.508 147.662C160.355 148.124 160.508 148.701 160.922 148.953C161.089 149.042 161.27 149.105 161.457 149.139C161.709 149.211 161.971 149.246 162.233 149.245C162.556 149.231 162.865 149.104 163.187 149.059C163.225 149.05 163.264 149.055 163.297 149.074C163.313 149.091 163.326 149.112 163.333 149.135C163.34 149.157 163.342 149.181 163.338 149.204C163.342 149.388 163.355 149.571 163.379 149.752C163.38 149.792 163.388 149.832 163.405 149.868C163.422 149.904 163.446 149.937 163.476 149.963C163.523 149.984 163.574 149.993 163.625 149.989H164.635C164.658 149.102 164.561 148.215 164.346 147.354C164.332 147.288 164.307 147.225 164.272 147.168C164.186 147.074 164.073 147.009 163.949 146.982C163.703 146.879 163.436 146.833 163.169 146.846C162.843 146.889 162.571 147.099 162.293 147.274C162.015 147.449 161.637 147.604 161.3 147.515C160.963 147.425 160.681 147.144 160.508 147.662Z" fill="#3F3D56"/>
<path d="M145.681 146.844C145.397 147.148 145.049 147.385 144.662 147.537L144.491 147.619C144.467 147.628 144.447 147.644 144.433 147.665C144.43 147.68 144.43 147.695 144.433 147.709C144.436 147.724 144.442 147.738 144.452 147.749C144.594 147.97 144.805 148.138 145.052 148.228C145.299 148.317 145.568 148.324 145.819 148.247C145.93 148.219 146.033 148.165 146.119 148.09C146.261 147.922 146.342 147.711 146.35 147.49C146.406 147.263 146.397 147.025 146.322 146.803C146.063 146.22 145.968 146.484 145.681 146.844Z" fill="#FBBEBE"/>
<path d="M149.553 149.139C149.559 149.21 149.548 149.281 149.521 149.346C149.434 149.517 149.189 149.508 148.999 149.471C148.971 148.839 148.894 148.21 148.77 147.589C148.409 147.572 148.148 147.915 147.954 148.223L147.455 149.014C147.383 149.151 147.281 149.269 147.157 149.361C147.057 149.416 146.948 149.45 146.834 149.463C145.881 149.622 144.917 149.322 143.997 149.024C143.861 148.987 143.732 148.932 143.611 148.86C143.447 148.739 143.336 148.56 143.301 148.359C143.266 148.158 143.311 147.952 143.425 147.783C143.811 147.261 144.677 147.41 145.158 146.978C145.107 147.282 145.025 147.58 144.912 147.867C145.554 147.77 145.987 147.181 146.505 146.788C146.635 146.678 146.792 146.603 146.959 146.572C147.085 146.561 147.211 146.575 147.332 146.611C147.929 146.761 148.488 147.036 148.971 147.418C149.167 147.572 149.473 147.79 149.558 148.029C149.65 148.314 149.553 148.836 149.553 149.139Z" fill="#3F3D56"/>
<path d="M162.369 87.6666C164.495 87.6666 166.219 85.9433 166.219 83.8174C166.219 81.6915 164.495 79.9681 162.369 79.9681C160.243 79.9681 158.52 81.6915 158.52 83.8174C158.52 85.9433 160.243 87.6666 162.369 87.6666Z" fill="#FBBEBE"/>
<path d="M169.953 106.544C169.937 107.28 169.833 108.011 169.641 108.722C169.459 109.605 169.224 110.476 168.937 111.33C168.715 111.951 168.438 112.573 168.44 113.231C168.44 113.505 168.484 113.808 168.317 114.025C168.167 114.176 167.979 114.284 167.773 114.336C167.67 114.363 167.574 114.414 167.495 114.485C167.415 114.556 167.353 114.645 167.314 114.744C167.139 114.482 167.008 114.194 166.927 113.89C166.593 112.867 166.282 111.838 165.995 110.803C165.969 110.744 165.958 110.679 165.962 110.614C165.967 110.549 165.987 110.486 166.021 110.43C166.069 110.389 166.124 110.358 166.183 110.339C166.374 110.261 166.549 110.149 166.699 110.008C166.77 109.945 166.828 109.87 166.871 109.786C166.925 109.652 166.95 109.509 166.944 109.365C166.944 108.871 166.944 108.379 166.931 107.885C166.923 107.43 166.94 106.974 166.983 106.52C166.983 106.43 166.999 106.287 167.014 106.134C167.042 105.842 167.098 105.502 167.257 105.389C167.493 105.23 168.201 105.443 168.469 105.48C168.932 105.543 169.401 105.618 169.852 105.706C169.917 105.98 169.951 106.262 169.953 106.544Z" fill="#3F3D56"/>
<path d="M154.41 88.1268C154.261 88.4249 153.903 88.5684 153.627 88.7565L152.683 89.4049C152.62 89.4618 152.546 89.5053 152.465 89.5328C152.385 89.5604 152.3 89.5714 152.215 89.5651C152.138 89.5368 152.068 89.4933 152.008 89.4373C151.948 89.3813 151.9 89.3139 151.867 89.2391C151.867 89.2341 151.867 89.2291 151.867 89.2242L151.671 88.8963L150.74 87.335C150.636 87.1952 150.576 87.028 150.566 86.8543C150.566 86.7742 150.594 86.6996 150.602 86.6195C150.604 86.3945 150.539 86.1739 150.415 85.9861C150.341 85.8463 150.192 85.7308 150.195 85.5743C150.188 85.3687 150.224 85.1638 150.3 84.9725C150.398 84.7956 150.538 84.6458 150.708 84.5365C150.795 84.4732 150.885 84.4136 150.978 84.3502C151.027 84.3165 151.082 84.2913 151.14 84.2757C151.295 84.244 151.448 84.3726 151.604 84.3782C152.277 84.8291 152.536 85.6824 153.065 86.2972C153.363 86.6475 153.393 86.9158 153.73 87.2288C153.784 87.2772 153.836 87.3294 153.886 87.3834C153.953 87.4561 154.009 87.5376 154.054 87.6256C154.116 87.7858 154.486 87.974 154.41 88.1268Z" fill="#3F3D56"/>
<path d="M161.017 87.6685C161.294 88.2553 161.51 88.9 161.43 89.5446C161.414 89.7193 161.358 89.888 161.268 90.0384C161 90.4501 160.437 90.5247 159.947 90.5489C159.844 90.5402 159.74 90.5522 159.642 90.5842C159.543 90.6162 159.452 90.6675 159.373 90.7352C159.308 90.8303 159.276 90.9445 159.282 91.0598C159.289 91.1751 159.333 91.2851 159.409 91.3724C159.566 91.5404 159.762 91.6682 159.979 91.745C160.754 92.086 161.591 92.3673 162.433 92.289C162.824 92.2518 163.204 92.1381 163.593 92.0804C164.018 92.0344 164.445 92.0108 164.872 92.0096C165.378 91.9909 165.883 91.9406 166.388 91.8903L167.726 91.7581C167.799 91.7591 167.87 91.7332 167.925 91.6854C168.024 91.5699 167.897 91.4003 167.774 91.3128C167.064 90.7874 166.161 90.4259 165.756 89.6359C165.57 89.2633 165.512 88.8199 165.375 88.4174C165.237 88.015 165.017 87.6517 164.931 87.2418C164.885 86.8822 164.865 86.5199 164.87 86.1575C164.874 85.792 164.741 85.4381 164.497 85.1663C164.231 84.9185 163.845 84.8551 163.483 84.8402C162.593 84.8011 161.645 85.0135 161.013 85.6414C160.843 85.8109 160.698 86.014 160.523 86.1668C160.348 86.3195 160.109 86.3643 160.225 86.5655C160.34 86.7667 160.568 86.8915 160.691 87.0685C160.815 87.2595 160.924 87.4601 161.017 87.6685Z" fill="#FBBEBE"/>
<path d="M168.605 93.0883C168.37 94.523 167.988 95.9296 167.465 97.286C167.202 97.8985 166.978 98.527 166.794 99.1677C166.651 99.7453 166.679 100.364 166.546 100.943C166.382 101.664 166.218 102.387 166.086 103.114C165.864 104.223 165.775 105.356 165.822 106.486C165.822 106.664 165.856 106.841 165.922 107.006C165.984 107.14 166.082 107.256 166.14 107.394C166.183 107.515 166.201 107.643 166.192 107.772C166.183 107.9 166.148 108.025 166.088 108.139C165.992 108.352 165.863 108.548 165.704 108.72C163.968 109.238 162.11 109.068 160.301 109.178C158.634 109.279 156.947 109.622 155.304 109.337C155.118 108.592 155.429 107.811 155.695 107.084C156.469 104.973 157.324 102.775 157.186 100.563C157.171 100.305 157.142 100.048 157.098 99.7938C156.828 98.2269 157.123 96.6041 157.594 95.0856C157.886 94.1391 157.873 93.1312 157.806 92.1456C157.773 91.8255 157.769 91.5031 157.793 91.1823C157.82 90.8547 157.942 90.542 158.144 90.2824C158.144 90.2694 158.16 90.2563 158.17 90.2433C158.179 90.2302 158.252 90.2321 158.309 90.2433C158.324 90.2495 158.34 90.2528 158.356 90.2528C158.372 90.2528 158.388 90.2495 158.403 90.2433L158.423 90.2302C158.431 90.2246 158.44 90.2216 158.45 90.2216C158.46 90.2216 158.469 90.2246 158.477 90.2302C158.52 90.2563 158.544 90.3458 158.637 90.3625C158.775 90.3834 158.914 90.3964 159.053 90.4017C159.22 90.4066 159.386 90.4304 159.548 90.4725H159.571C159.813 90.5133 160.062 90.4922 160.294 90.411C160.448 90.3724 160.597 90.3148 160.737 90.2396C160.778 90.1948 161.035 90.1539 161.087 90.1222C161.257 90.0197 161.22 89.539 161.255 89.3415C161.275 89.1434 161.322 88.9491 161.395 88.764C161.48 88.6273 161.597 88.5136 161.736 88.4327C161.875 88.3518 162.032 88.3063 162.192 88.3C162.513 88.2924 162.834 88.3211 163.148 88.3857C163.843 88.4845 164.555 88.4677 165.237 88.6279C165.579 88.7081 165.954 88.8292 166.269 88.6727C166.355 88.6932 166.368 88.7677 166.368 88.859C166.36 88.9457 166.342 89.0313 166.315 89.1142C166.196 89.6285 166.6 90.1017 166.973 90.4743C167.131 90.65 167.316 90.798 167.523 90.9122C167.709 90.9979 167.895 91.0333 168.082 91.1264C168.233 91.2069 168.361 91.3242 168.454 91.4674C168.562 91.6315 168.634 91.8161 168.667 92.0095C168.707 92.37 168.686 92.7347 168.605 93.0883Z" fill="#3F3D56"/>
<path opacity="0.1" d="M168.605 93.0884C168.371 94.523 167.988 95.9297 167.465 97.286C167.202 97.8985 166.978 98.527 166.794 99.1678C166.651 99.7454 166.679 100.364 166.547 100.943C166.383 101.664 166.219 102.387 166.087 103.114C166.047 103.136 166.006 103.157 165.965 103.175C165.734 103.286 165.488 103.365 165.235 103.41C164.781 103.465 164.321 103.45 163.871 103.365L161.213 103.01C160.151 102.866 159.02 102.693 158.231 101.974C157.794 101.579 157.507 101.057 157.192 100.554C157.177 100.296 157.148 100.039 157.104 99.7845C156.834 98.2176 157.128 96.5948 157.6 95.0763C157.892 94.1299 157.879 93.1219 157.812 92.1363C157.779 91.8163 157.775 91.4939 157.799 91.1731C157.826 90.8455 157.948 90.5328 158.15 90.2732C158.204 90.2572 158.259 90.2448 158.315 90.2359C158.353 90.2283 158.391 90.2233 158.429 90.221H158.483C158.546 90.2212 158.608 90.2287 158.669 90.2433C158.796 90.2838 158.921 90.3317 159.042 90.3868H159.064C159.224 90.4394 159.392 90.4634 159.56 90.4576C159.806 90.4576 160.059 90.4185 160.305 90.4017C160.609 90.3543 160.92 90.41 161.188 90.5601C161.362 90.6993 161.526 90.8493 161.68 91.0091C161.867 91.1555 162.076 91.2695 162.301 91.3463C163.904 91.9585 165.684 91.9211 167.26 91.242C167.412 91.1559 167.584 91.1121 167.758 91.1153C167.886 91.1405 168.008 91.1925 168.115 91.2681C168.227 91.3333 168.337 91.3966 168.451 91.4544C168.558 91.6186 168.631 91.8031 168.663 91.9966C168.706 92.3611 168.686 92.7303 168.605 93.0884Z" fill="black"/>
<path d="M170.228 91.8549C169.486 91.6283 168.773 91.3157 168.104 90.9233C167.997 90.8483 167.875 90.7963 167.746 90.7706C167.572 90.7685 167.4 90.8122 167.247 90.8973C165.671 91.5762 163.892 91.6137 162.289 91.0016C162.065 90.9241 161.856 90.8101 161.669 90.6644C161.514 90.505 161.35 90.3551 161.177 90.2153C160.564 89.8185 159.716 90.2843 159.031 90.029C158.909 89.9747 158.785 89.9268 158.658 89.8856C158.116 89.7496 157.564 90.2899 157.031 90.1259C156.833 90.6648 156.687 91.2213 156.594 91.7878C156.518 92.4385 156.477 93.0928 156.472 93.7479C156.472 94.141 156.454 94.5341 156.472 94.9272C156.538 94.938 156.601 94.9622 156.657 94.9985C156.712 95.0347 156.76 95.0822 156.797 95.1378C156.821 95.2027 156.831 95.2722 156.826 95.3414C156.821 95.4105 156.801 95.4778 156.767 95.5384C156.377 96.5389 155.982 97.5505 155.392 98.4467C155.808 98.6947 156.194 98.9898 156.543 99.3261C157.195 100.015 157.516 100.982 158.22 101.62C159.014 102.337 160.145 102.512 161.201 102.654L163.86 103.01C164.31 103.094 164.771 103.11 165.226 103.056C165.478 103.01 165.723 102.931 165.954 102.82C166.105 102.756 166.243 102.665 166.36 102.551C166.458 102.44 166.539 102.314 166.601 102.179C166.811 101.758 167.003 101.327 167.18 100.891C167.241 100.737 167.335 100.556 167.502 100.543C168.49 99.6522 169.421 98.7392 170.409 97.8487C170.806 97.5198 171.162 97.1445 171.469 96.7308C171.959 96.006 171.514 94.9794 171.469 94.1037C171.464 93.8798 171.435 93.6569 171.385 93.4386C171.225 92.8033 170.849 92.0431 170.228 91.8549Z" fill="#8400F0"/>
<path opacity="0.1" d="M154.41 88.1268C154.261 88.4249 153.903 88.5684 153.628 88.7566L152.683 89.4049C152.62 89.4618 152.546 89.5053 152.465 89.5329C152.385 89.5604 152.3 89.5714 152.215 89.5652C152.138 89.5368 152.068 89.4933 152.008 89.4373C151.948 89.3813 151.9 89.3139 151.867 89.2391C151.867 89.1963 151.867 89.1497 151.867 89.105C151.86 88.9542 151.88 88.8033 151.927 88.6597C152.019 88.449 152.162 88.2646 152.344 88.1231C152.695 87.7909 153.112 87.5369 153.568 87.3778C153.639 87.3502 153.716 87.3424 153.791 87.3555C153.82 87.363 153.848 87.375 153.873 87.3909C153.94 87.4636 153.997 87.5451 154.041 87.6331C154.116 87.7859 154.486 87.974 154.41 88.1268Z" fill="black"/>
<path d="M156.635 90.0906C156.318 90.0757 156.059 89.8465 155.828 89.6285L155.122 88.9727C155.075 88.9327 155.033 88.8863 154.999 88.8348C154.961 88.7624 154.932 88.6854 154.913 88.6057C154.763 88.2293 154.529 87.8926 154.228 87.6219C154.175 87.5552 154.105 87.5048 154.024 87.4766C153.949 87.4626 153.871 87.4704 153.799 87.499C153.343 87.6578 152.925 87.9118 152.575 88.2442C152.394 88.3858 152.25 88.5702 152.158 88.7808C152.111 88.9243 152.091 89.0753 152.098 89.2261C152.102 89.7184 152.213 90.2039 152.422 90.6495C152.454 90.7185 152.489 90.7874 152.526 90.8545C152.775 91.2653 153.069 91.6472 153.402 91.9928L153.846 92.4884C154.282 92.9766 154.718 93.4647 155.191 93.9137C155.36 94.0947 155.566 94.2381 155.794 94.3348C155.909 94.3816 156.034 94.3959 156.157 94.3762C156.279 94.3565 156.393 94.3035 156.488 94.223C156.577 94.1197 156.644 93.9992 156.685 93.869C156.972 93.1238 157.244 92.3487 157.261 91.5457C157.265 91.2241 157.251 90.9025 157.22 90.5824C157.192 90.2434 156.951 90.1111 156.635 90.0906Z" fill="#8400F0"/>
<path d="M167.925 116.175C167.915 118.049 167.781 119.92 167.527 121.777C167.489 122.077 167.448 122.377 167.428 122.677C167.366 123.547 167.467 124.421 167.385 125.285C167.342 125.753 167.245 126.217 167.163 126.673C166.799 128.711 166.693 130.786 166.847 132.85C167.104 136.284 166.316 139.719 166.673 143.144C166.717 143.81 166.68 144.478 166.563 145.135C166.497 145.543 166.4 145.945 166.275 146.339C166.003 147.272 165.729 148.203 165.455 149.134C165.423 149.275 165.359 149.408 165.269 149.521C165.173 149.603 165.062 149.664 164.942 149.7C164.821 149.736 164.694 149.745 164.57 149.728C163.495 149.694 162.483 149.231 161.507 148.778C161.395 148.734 161.291 148.671 161.199 148.591C160.996 148.381 161.013 148.049 160.924 147.772C160.834 147.494 160.592 147.233 160.454 146.948C160.341 146.679 160.272 146.392 160.251 146.1C160.127 145.147 160.042 144.189 159.998 143.227C159.927 141.875 160.821 140.63 161.116 139.315C161.675 136.729 161.201 133.956 162.194 131.503C162.507 130.728 162.053 129.789 162.008 128.954C161.992 128.415 161.922 127.88 161.799 127.355C161.613 126.655 161.22 125.995 161.192 125.269C161.171 124.743 161.341 124.231 161.429 123.713C161.545 122.951 161.534 122.174 161.397 121.416C161.298 120.79 161.147 120.164 160.996 119.552L160.963 119.621C160.509 120.509 160.118 121.427 159.795 122.37C159.646 122.826 159.515 123.292 159.329 123.735C159.176 124.108 158.988 124.449 158.803 124.799C158.142 126.034 157.566 127.314 157.08 128.628C156.849 129.273 156.646 129.932 156.445 130.579L155.064 135.05C154.691 136.226 154.283 137.362 153.918 138.536C153.402 140.213 152.886 141.875 152.286 143.514C151.727 145.07 151.062 146.682 151.261 148.325C150.748 148.567 150.183 148.681 149.616 148.659C148.656 148.574 147.714 148.345 146.821 147.98C146.466 147.848 146.097 147.699 145.856 147.407C145.443 146.902 145.545 146.162 145.67 145.519C145.717 145.229 145.792 144.945 145.894 144.67C146.035 144.327 146.266 144.023 146.412 143.684C146.704 143.034 146.723 142.298 146.838 141.592C146.954 140.885 147.211 140.14 147.815 139.756C147.917 138.516 148.428 137.291 148.709 136.079C148.921 135.16 148.992 134.215 149.16 133.284C149.327 132.352 149.598 131.421 150.16 130.666C150.116 129.888 150.291 129.113 150.667 128.43C150.758 128.28 150.832 128.121 150.889 127.955C150.923 127.793 150.943 127.629 150.948 127.463C151.01 126.816 151.287 126.208 151.735 125.736C151.548 125.056 151.807 124.346 152.04 123.687C152.334 122.845 152.466 121.956 152.431 121.065C152.403 120.817 152.415 120.565 152.467 120.32C152.519 120.134 152.621 119.975 152.681 119.797C152.734 119.577 152.762 119.353 152.765 119.128C152.838 118.12 153.246 117.17 153.697 116.27C153.965 115.744 153.737 115.031 153.793 114.446C153.89 113.473 153.996 112.467 154.479 111.619C154.568 111.459 154.665 111.306 154.745 111.14C154.843 110.904 154.895 110.651 154.9 110.395C154.917 109.968 154.976 109.614 154.824 109.218C155.821 108.388 157.181 108.156 158.477 108.1C159.774 108.044 161.086 108.161 162.355 107.885C162.727 107.802 163.1 107.686 163.493 107.63C164.385 107.5 165.291 107.703 166.172 107.904C166.111 108.463 166.316 109 166.545 109.519C167.439 111.625 167.909 113.887 167.925 116.175Z" fill="#33313F"/>
<path opacity="0.1" d="M163.538 116.601L161.397 121.416C161.298 120.79 161.147 120.164 160.996 119.552L160.963 119.621V119.521L162.129 116.955L163.538 116.601Z" fill="black"/>
<path opacity="0.1" d="M169.952 106.544C169.829 106.636 169.681 106.691 169.528 106.702C169.292 106.711 169.056 106.679 168.831 106.607L167.154 106.188C167.101 106.175 167.05 106.157 167.001 106.134C167.029 105.842 167.085 105.502 167.243 105.389C167.48 105.23 168.188 105.443 168.456 105.48C168.918 105.543 169.388 105.618 169.839 105.706C169.909 105.98 169.947 106.261 169.952 106.544Z" fill="black"/>
<path d="M171.37 95.4583C171.406 95.6129 171.456 95.7657 171.486 95.9222C171.536 96.3062 171.523 96.6958 171.447 97.0755L171.294 98.1412L171.141 99.2125L170.551 103.336L170.405 104.357L170.2 105.782C170.191 105.901 170.16 106.017 170.111 106.125C170.05 106.226 169.965 106.311 169.863 106.371C169.761 106.431 169.646 106.465 169.528 106.47C169.292 106.477 169.056 106.445 168.831 106.375L167.154 105.953C167.081 105.94 167.011 105.912 166.949 105.87C166.898 105.82 166.861 105.757 166.842 105.688C166.823 105.619 166.823 105.546 166.841 105.476C166.865 105.335 166.927 105.203 166.947 105.061C166.988 104.785 166.873 104.502 166.914 104.228C166.954 104.054 167.016 103.885 167.1 103.727C167.659 102.492 167.335 101.05 167.525 99.7081C167.696 98.6524 168.142 97.6602 168.818 96.8314C169.235 96.3083 169.714 95.8378 170.245 95.4303C170.454 95.2682 170.785 94.9347 171.048 94.8714C171.385 94.8006 171.314 95.2235 171.37 95.4583Z" fill="#8400F0"/>
<path d="M158.68 79.4091C158.557 79.8004 158.749 80.2308 158.662 80.6295C158.567 81.0692 158.153 81.3748 158.036 81.8163C157.849 82.4889 158.42 83.1019 158.837 83.6608C160.383 85.7364 160.18 88.6094 159.651 91.1414C159.225 93.1728 158.637 95.1666 157.89 97.1035C157.658 97.7053 157.4 98.3164 156.942 98.7673C157.799 98.5213 158.71 98.2735 159.569 98.512C160.657 98.8138 161.596 99.8702 162.699 99.6299C163.363 99.4827 163.828 98.8939 164.425 98.5679C165.542 97.9661 166.889 98.3443 168.136 98.5381C168.405 98.6015 168.686 98.5872 168.946 98.4971C169.146 98.3899 169.315 98.2342 169.438 98.0444C169.995 97.3307 170.328 96.4686 170.396 95.5664C170.425 95.1171 170.359 94.6666 170.201 94.2449C170.044 93.8232 169.798 93.4398 169.481 93.1201C169.217 92.8704 168.9 92.6692 168.697 92.3748C168.499 92.031 168.393 91.6422 168.389 91.2457C168.242 89.1963 168.741 87.1039 168.227 85.1216C168.041 84.4154 167.737 83.7391 167.655 83.0162C167.553 82.1163 167.797 81.153 167.439 80.3295C167.158 79.6756 166.537 79.2116 165.868 78.9732C165.2 78.7347 164.484 78.6676 163.774 78.6005C162.753 78.5148 159.107 78.077 158.68 79.4091Z" fill="#33313F"/>
<g opacity="0.1">
<path opacity="0.1" d="M159.651 91.1414C159.228 93.1644 158.642 95.1501 157.9 97.0792C158.028 96.8239 158.137 96.5556 158.239 96.2892C158.986 94.3527 159.575 92.3588 160 90.3272C160.531 87.7933 160.734 84.924 159.187 82.8466C158.815 82.351 158.336 81.8145 158.353 81.2332C158.215 81.409 158.108 81.6068 158.036 81.8182C157.85 82.4908 158.42 83.1038 158.837 83.6627C160.383 85.7364 160.18 88.6093 159.651 91.1414Z" fill="black"/>
<path opacity="0.1" d="M158.684 80.4413C158.834 80.2556 158.945 80.0422 159.012 79.8134C159.041 79.5366 159.033 79.2573 158.99 78.9825C158.846 79.0905 158.738 79.2391 158.68 79.4091C158.571 79.7389 158.697 80.0966 158.684 80.4413Z" fill="black"/>
<path opacity="0.1" d="M169.789 97.2245C169.665 97.4138 169.496 97.5689 169.297 97.6754C169.036 97.7674 168.755 97.7816 168.486 97.7163C167.24 97.53 165.878 97.1462 164.775 97.748C164.177 98.0722 163.713 98.661 163.048 98.81C161.947 99.0559 161.008 97.9995 159.919 97.6921C159.148 97.4779 158.336 97.6549 157.559 97.8784C157.404 98.2077 157.196 98.5087 156.942 98.769C157.799 98.5231 158.71 98.2753 159.569 98.5138C160.657 98.8156 161.596 99.872 162.699 99.6317C163.363 99.4845 163.828 98.8957 164.425 98.5697C165.542 97.9679 166.89 98.3461 168.136 98.5399C168.405 98.6032 168.686 98.589 168.946 98.4989C169.146 98.3917 169.315 98.236 169.438 98.0461C169.776 97.6007 170.037 97.102 170.21 96.5705C170.085 96.7983 169.944 97.0168 169.789 97.2245Z" fill="black"/>
</g>
</g>
<defs>
<linearGradient id="paint0_linear" x1="143.202" y1="114.103" x2="171.708" y2="114.103" gradientUnits="userSpaceOnUse">
<stop stop-color="#808080" stop-opacity="0.25"/>
<stop offset="0.54" stop-color="#808080" stop-opacity="0.12"/>
<stop offset="1" stop-color="#808080" stop-opacity="0.1"/>
</linearGradient>
<clipPath id="clip0">
<rect width="217.274" height="150" fill="white"/>
</clipPath>
</defs>
</svg>
